<?xml version="1.0" standalone="no"?>
<svg xmlns="http://www.w3.org/2000/svg" width="500" height="500"><defs><clipPath id="clip-path-dot-color"><path d="M 19 131v 14h 7a 7 7, 0, 0, 0, 0 -14" transform="rotate(-90,26,138)"/><path d="M 19 145v 14h 14v -7a 7 7, 0, 0, 0, -7 -7" transform="rotate(180,26,152)"/><path d="M 19 187v 14h 14v -7a 7 7, 0, 0, 0, -7 -7" transform="rotate(-90,26,194)"/><path d="M 19 201v 14h 7a 7 7, 0, 0, 0, 0 -14" transform="rotate(90,26,208)"/><path d="M 19 229v 14h 14v -7a 7 7, 0, 0, 0, -7 -7" transform="rotate(-90,26,236)"/><path d="M 19 243v 14h 7a 7 7, 0, 0, 0, 0 -14" transform="rotate(90,26,250)"/><path d="M 19 271v 14h 7a 7 7, 0, 0, 0, 0 -14" transform="rotate(-90,26,278)"/><rect x="19" y="285" width="14" height="14" transform="rotate(0,26,292)"/><path d="M 19 299v 14h 14v -7a 7 7, 0, 0, 0, -7 -7" transform="rotate(180,26,306)"/><path d="M 19 341v 14h 7a 7 7, 0, 0, 0, 0 -14" transform="rotate(180,26,348)"/><rect x="33" y="145" width="14" height="14" transform="rotate(0,40,152)"/><path d="M 33 159v 14h 7a 7 7, 0, 0, 0, 0 -14" transform="rotate(90,40,166)"/><path d="M 33 187v 14h 7a 7 7, 0, 0, 0, 0 -14" transform="rotate(0,40,194)"/><path d="M 33 215v 14h 14v -7a 7 7, 0, 0, 0, -7 -7" transform="rotate(-90,40,222)"/><path d="M 33 229v 14h 14v -7a 7 7, 0, 0, 0, -7 -7" transform="rotate(90,40,236)"/><path d="M 33 257v 14h 7a 7 7, 0, 0, 0, 0 -14" transform="rotate(180,40,264)"/><path d="M 33 299v 14h 14v -7a 7 7, 0, 0, 0, -7 -7" transform="rotate(0,40,306)"/><path d="M 33 313v 14h 7a 7 7, 0, 0, 0, 0 -14" transform="rotate(90,40,320)"/><rect x="33" y="341" width="14" height="14" transform="rotate(0,40,348)"/><path d="M 47 131v 14h 14v -7a 7 7, 0, 0, 0, -7 -7" transform="rotate(-90,54,138)"/><path d="M 47 145v 14h 14v -7a 7 7, 0, 0, 0, -7 -7" transform="rotate(90,54,152)"/><rect x="47" y="215" width="14" height="14" transform="rotate(0,54,222)"/><path d="M 47 243v 14h 14v -7a 7 7, 0, 0, 0, -7 -7" transform="rotate(-90,54,250)"/><rect x="47" y="257" width="14" height="14" transform="rotate(0,54,264)"/><path d="M 47 327v 14h 7a 7 7, 0, 0, 0, 0 -14" transform="rotate(-90,54,334)"/><rect x="47" y="341" width="14" height="14" transform="rotate(0,54,348)"/><path d="M 47 355v 14h 14v -7a 7 7, 0, 0, 0, -7 -7" transform="rotate(180,54,362)"/><path d="M 61 131v 14h 7a 7 7, 0, 0, 0, 0 -14" transform="rotate(0,68,138)"/><circle cx="68" cy="180" r="7" transform="rotate(0,68,180)"/><path d="M 61 215v 14h 14v -7a 7 7, 0, 0, 0, -7 -7" transform="rotate(0,68,222)"/><rect x="61" y="229" width="14" height="14" transform="rotate(0,68,236)"/><rect x="61" y="243" width="14" height="14" transform="rotate(0,68,250)"/><rect x="61" y="257" width="14" height="14" transform="rotate(0,68,264)"/><path d="M 61 285v 14h 7a 7 7, 0, 0, 0, 0 -14" transform="rotate(180,68,292)"/><circle cx="68" cy="320" r="7" transform="rotate(0,68,320)"/><path d="M 61 355v 14h 7a 7 7, 0, 0, 0, 0 -14" transform="rotate(0,68,362)"/><path d="M 75 229v 14h 7a 7 7, 0, 0, 0, 0 -14" transform="rotate(0,82,236)"/><rect x="75" y="257" width="14" height="14" transform="rotate(0,82,264)"/><path d="M 75 285v 14h 7a 7 7, 0, 0, 0, 0 -14" transform="rotate(0,82,292)"/><circle cx="82" cy="348" r="7" transform="rotate(0,82,348)"/><path d="M 89 131v 14h 14v -7a 7 7, 0, 0, 0, -7 -7" transform="rotate(-90,96,138)"/><rect x="89" y="145" width="14" height="14" transform="rotate(0,96,152)"/><rect x="89" y="159" width="14" height="14" transform="rotate(0,96,166)"/><path d="M 89 173v 14h 7a 7 7, 0, 0, 0, 0 -14" transform="rotate(90,96,180)"/><path d="M 89 201v 14h 7a 7 7, 0, 0, 0, 0 -14" transform="rotate(-90,96,208)"/><path d="M 89 215v 14h 14v -7a 7 7, 0, 0, 0, -7 -7" transform="rotate(180,96,222)"/><path d="M 89 257v 14h 14v -7a 7 7, 0, 0, 0, -7 -7" transform="rotate(0,96,264)"/><path d="M 89 271v 14h 14v -7a 7 7, 0, 0, 0, -7 -7" transform="rotate(180,96,278)"/><path d="M 89 299v 14h 7a 7 7, 0, 0, 0, 0 -14" transform="rotate(180,96,306)"/><path d="M 89 327v 14h 7a 7 7, 0, 0, 0, 0 -14" transform="rotate(180,96,334)"/><path d="M 89 355v 14h 7a 7 7, 0, 0, 0, 0 -14" transform="rotate(180,96,362)"/><rect x="103" y="131" width="14" height="14" transform="rotate(0,110,138)"/><rect x="103" y="159" width="14" height="14" transform="rotate(0,110,166)"/><circle cx="110" cy="194" r="7" transform="rotate(0,110,194)"/><rect x="103" y="215" width="14" height="14" transform="rotate(0,110,222)"/><circle cx="110" cy="250" r="7" transform="rotate(0,110,250)"/><path d="M 103 271v 14h 7a 7 7, 0, 0, 0, 0 -14" transform="rotate(0,110,278)"/><rect x="103" y="299" width="14" height="14" transform="rotate(0,110,306)"/><rect x="103" y="327" width="14" height="14" transform="rotate(0,110,334)"/><path d="M 103 355v 14h 7a 7 7, 0, 0, 0, 0 -14" transform="rotate(0,110,362)"/><rect x="117" y="131" width="14" height="14" transform="rotate(0,124,138)"/><rect x="117" y="145" width="14" height="14" transform="rotate(0,124,152)"/><rect x="117" y="159" width="14" height="14" transform="rotate(0,124,166)"/><path d="M 117 201v 14h 14v -7a 7 7, 0, 0, 0, -7 -7" transform="rotate(-90,124,208)"/><rect x="117" y="215" width="14" height="14" transform="rotate(0,124,222)"/><path d="M 117 229v 14h 7a 7 7, 0, 0, 0, 0 -14" transform="rotate(90,124,236)"/><circle cx="124" cy="264" r="7" transform="rotate(0,124,264)"/><path d="M 117 285v 14h 14v -7a 7 7, 0, 0, 0, -7 -7" transform="rotate(-90,124,292)"/><rect x="117" y="299" width="14" height="14" transform="rotate(0,124,306)"/><rect x="117" y="313" width="14" height="14" transform="rotate(0,124,320)"/><path d="M 117 327v 14h 14v -7a 7 7, 0, 0, 0, -7 -7" transform="rotate(90,124,334)"/><path d="M 131 33v 14h 7a 7 7, 0, 0, 0, 0 -14" transform="rotate(180,138,40)"/><path d="M 131 61v 14h 7a 7 7, 0, 0, 0, 0 -14" transform="rotate(180,138,68)"/><path d="M 131 89v 14h 14v -7a 7 7, 0, 0, 0, -7 -7" transform="rotate(-90,138,96)"/><rect x="131" y="103" width="14" height="14" transform="rotate(0,138,110)"/><rect x="131" y="117" width="14" height="14" transform="rotate(0,138,124)"/><rect x="131" y="131" width="14" height="14" transform="rotate(0,138,138)"/><rect x="131" y="145" width="14" height="14" transform="rotate(0,138,152)"/><rect x="131" y="159" width="14" height="14" transform="rotate(0,138,166)"/><rect x="131" y="173" width="14" height="14" transform="rotate(0,138,180)"/><rect x="131" y="187" width="14" height="14" transform="rotate(0,138,194)"/><path d="M 131 201v 14h 14v -7a 7 7, 0, 0, 0, -7 -7" transform="rotate(90,138,208)"/><circle cx="138" cy="250" r="7" transform="rotate(0,138,250)"/><path d="M 131 285v 14h 7a 7 7, 0, 0, 0, 0 -14" transform="rotate(0,138,292)"/><path d="M 131 313v 14h 7a 7 7, 0, 0, 0, 0 -14" transform="rotate(0,138,320)"/><circle cx="138" cy="348" r="7" transform="rotate(0,138,348)"/><path d="M 131 369v 14h 14v -7a 7 7, 0, 0, 0, -7 -7" transform="rotate(-90,138,376)"/><rect x="131" y="383" width="14" height="14" transform="rotate(0,138,390)"/><path d="M 131 397v 14h 14v -7a 7 7, 0, 0, 0, -7 -7" transform="rotate(180,138,404)"/><path d="M 131 425v 14h 7a 7 7, 0, 0, 0, 0 -14" transform="rotate(-90,138,432)"/><path d="M 131 439v 14h 7a 7 7, 0, 0, 0, 0 -14" transform="rotate(90,138,446)"/><path d="M 131 467v 14h 7a 7 7, 0, 0, 0, 0 -14" transform="rotate(180,138,474)"/><path d="M 145 19v 14h 7a 7 7, 0, 0, 0, 0 -14" transform="rotate(-90,152,26)"/><rect x="145" y="33" width="14" height="14" transform="rotate(0,152,40)"/><rect x="145" y="47" width="14" height="14" transform="rotate(0,152,54)"/><rect x="145" y="61" width="14" height="14" transform="rotate(0,152,68)"/><rect x="145" y="75" width="14" height="14" transform="rotate(0,152,82)"/><rect x="145" y="89" width="14" height="14" transform="rotate(0,152,96)"/><path d="M 145 117v 14h 7a 7 7, 0, 0, 0, 0 -14" transform="rotate(0,152,124)"/><path d="M 145 145v 14h 7a 7 7, 0, 0, 0, 0 -14" transform="rotate(0,152,152)"/><path d="M 145 215v 14h 14v -7a 7 7, 0, 0, 0, -7 -7" transform="rotate(-90,152,222)"/><path d="M 145 229v 14h 7a 7 7, 0, 0, 0, 0 -14" transform="rotate(90,152,236)"/><circle cx="152" cy="306" r="7" transform="rotate(0,152,306)"/><path d="M 145 355v 14h 7a 7 7, 0, 0, 0, 0 -14" transform="rotate(-90,152,362)"/><rect x="145" y="369" width="14" height="14" transform="rotate(0,152,376)"/><rect x="145" y="383" width="14" height="14" transform="rotate(0,152,390)"/><rect x="145" y="397" width="14" height="14" transform="rotate(0,152,404)"/><path d="M 145 453v 14h 14v -7a 7 7, 0, 0, 0, -7 -7" transform="rotate(-90,152,460)"/><rect x="145" y="467" width="14" height="14" transform="rotate(0,152,474)"/><rect x="159" y="47" width="14" height="14" transform="rotate(0,166,54)"/><rect x="159" y="61" width="14" height="14" transform="rotate(0,166,68)"/><rect x="159" y="75" width="14" height="14" transform="rotate(0,166,82)"/><rect x="159" y="89" width="14" height="14" transform="rotate(0,166,96)"/><path d="M 159 103v 14h 7a 7 7, 0, 0, 0, 0 -14" transform="rotate(90,166,110)"/><path d="M 159 131v 14h 7a 7 7, 0, 0, 0, 0 -14" transform="rotate(180,166,138)"/><circle cx="166" cy="166" r="7" transform="rotate(0,166,166)"/><path d="M 159 187v 14h 7a 7 7, 0, 0, 0, 0 -14" transform="rotate(-90,166,194)"/><rect x="159" y="201" width="14" height="14" transform="rotate(0,166,208)"/><path d="M 159 215v 14h 14v -7a 7 7, 0, 0, 0, -7 -7" transform="rotate(90,166,222)"/><path d="M 159 257v 14h 7a 7 7, 0, 0, 0, 0 -14" transform="rotate(180,166,264)"/><path d="M 159 285v 14h 7a 7 7, 0, 0, 0, 0 -14" transform="rotate(180,166,292)"/><path d="M 159 313v 14h 7a 7 7, 0, 0, 0, 0 -14" transform="rotate(-90,166,320)"/><path d="M 159 327v 14h 7a 7 7, 0, 0, 0, 0 -14" transform="rotate(90,166,334)"/><path d="M 159 369v 14h 14v -7a 7 7, 0, 0, 0, -7 -7" transform="rotate(0,166,376)"/><rect x="159" y="383" width="14" height="14" transform="rotate(0,166,390)"/><rect x="159" y="397" width="14" height="14" transform="rotate(0,166,404)"/><path d="M 159 411v 14h 14v -7a 7 7, 0, 0, 0, -7 -7" transform="rotate(180,166,418)"/><path d="M 159 439v 14h 7a 7 7, 0, 0, 0, 0 -14" transform="rotate(-90,166,446)"/><rect x="159" y="453" width="14" height="14" transform="rotate(0,166,460)"/><path d="M 159 467v 14h 14v -7a 7 7, 0, 0, 0, -7 -7" transform="rotate(90,166,474)"/><rect x="173" y="47" width="14" height="14" transform="rotate(0,180,54)"/><rect x="173" y="61" width="14" height="14" transform="rotate(0,180,68)"/><rect x="173" y="89" width="14" height="14" transform="rotate(0,180,96)"/><path d="M 173 131v 14h 14v -7a 7 7, 0, 0, 0, -7 -7" transform="rotate(0,180,138)"/><path d="M 173 145v 14h 14v -7a 7 7, 0, 0, 0, -7 -7" transform="rotate(180,180,152)"/><path d="M 173 173v 14h 7a 7 7, 0, 0, 0, 0 -14" transform="rotate(180,180,180)"/><rect x="173" y="201" width="14" height="14" transform="rotate(0,180,208)"/><circle cx="180" cy="236" r="7" transform="rotate(0,180,236)"/><path d="M 173 257v 14h 7a 7 7, 0, 0, 0, 0 -14" transform="rotate(0,180,264)"/><rect x="173" y="285" width="14" height="14" transform="rotate(0,180,292)"/><path d="M 173 299v 14h 7a 7 7, 0, 0, 0, 0 -14" transform="rotate(90,180,306)"/><circle cx="180" cy="362" r="7" transform="rotate(0,180,362)"/><rect x="173" y="383" width="14" height="14" transform="rotate(0,180,390)"/><path d="M 173 411v 14h 14v -7a 7 7, 0, 0, 0, -7 -7" transform="rotate(0,180,418)"/><path d="M 173 425v 14h 14v -7a 7 7, 0, 0, 0, -7 -7" transform="rotate(180,180,432)"/><circle cx="194" cy="26" r="7" transform="rotate(0,194,26)"/><path d="M 187 47v 14h 14v -7a 7 7, 0, 0, 0, -7 -7" transform="rotate(0,194,54)"/><path d="M 187 61v 14h 14v -7a 7 7, 0, 0, 0, -7 -7" transform="rotate(90,194,68)"/><rect x="187" y="89" width="14" height="14" transform="rotate(0,194,96)"/><rect x="187" y="103" width="14" height="14" transform="rotate(0,194,110)"/><path d="M 187 117v 14h 14v -7a 7 7, 0, 0, 0, -7 -7" transform="rotate(180,194,124)"/><rect x="187" y="145" width="14" height="14" transform="rotate(0,194,152)"/><rect x="187" y="159" width="14" height="14" transform="rotate(0,194,166)"/><rect x="187" y="173" width="14" height="14" transform="rotate(0,194,180)"/><path d="M 187 201v 14h 7a 7 7, 0, 0, 0, 0 -14" transform="rotate(0,194,208)"/><circle cx="194" cy="250" r="7" transform="rotate(0,194,250)"/><path d="M 187 285v 14h 7a 7 7, 0, 0, 0, 0 -14" transform="rotate(0,194,292)"/><path d="M 187 369v 14h 7a 7 7, 0, 0, 0, 0 -14" transform="rotate(-90,194,376)"/><rect x="187" y="383" width="14" height="14" transform="rotate(0,194,390)"/><path d="M 187 425v 14h 7a 7 7, 0, 0, 0, 0 -14" transform="rotate(0,194,432)"/><path d="M 187 453v 14h 14v -7a 7 7, 0, 0, 0, -7 -7" transform="rotate(-90,194,460)"/><path d="M 187 467v 14h 14v -7a 7 7, 0, 0, 0, -7 -7" transform="rotate(180,194,474)"/><path d="M 201 75v 14h 7a 7 7, 0, 0, 0, 0 -14" transform="rotate(-90,208,82)"/><path d="M 201 89v 14h 14v -7a 7 7, 0, 0, 0, -7 -7" transform="rotate(90,208,96)"/><rect x="201" y="117" width="14" height="14" transform="rotate(0,208,124)"/><rect x="201" y="131" width="14" height="14" transform="rotate(0,208,138)"/><rect x="201" y="145" width="14" height="14" transform="rotate(0,208,152)"/><path d="M 201 173v 14h 7a 7 7, 0, 0, 0, 0 -14" transform="rotate(0,208,180)"/><path d="M 201 229v 14h 7a 7 7, 0, 0, 0, 0 -14" transform="rotate(180,208,236)"/><path d="M 201 257v 14h 7a 7 7, 0, 0, 0, 0 -14" transform="rotate(180,208,264)"/><path d="M 201 327v 14h 7a 7 7, 0, 0, 0, 0 -14" transform="rotate(180,208,334)"/><circle cx="208" cy="362" r="7" transform="rotate(0,208,362)"/><rect x="201" y="383" width="14" height="14" transform="rotate(0,208,390)"/><path d="M 201 411v 14h 7a 7 7, 0, 0, 0, 0 -14" transform="rotate(180,208,418)"/><path d="M 201 439v 14h 7a 7 7, 0, 0, 0, 0 -14" transform="rotate(-90,208,446)"/><rect x="201" y="453" width="14" height="14" transform="rotate(0,208,460)"/><path d="M 201 467v 14h 14v -7a 7 7, 0, 0, 0, -7 -7" transform="rotate(90,208,474)"/><circle cx="222" cy="26" r="7" transform="rotate(0,222,26)"/><path d="M 215 47v 14h 14v -7a 7 7, 0, 0, 0, -7 -7" transform="rotate(-90,222,54)"/><path d="M 215 61v 14h 7a 7 7, 0, 0, 0, 0 -14" transform="rotate(90,222,68)"/><path d="M 215 103v 14h 7a 7 7, 0, 0, 0, 0 -14" transform="rotate(-90,222,110)"/><rect x="215" y="117" width="14" height="14" transform="rotate(0,222,124)"/><path d="M 215 145v 14h 14v -7a 7 7, 0, 0, 0, -7 -7" transform="rotate(0,222,152)"/><path d="M 215 159v 14h 14v -7a 7 7, 0, 0, 0, -7 -7" transform="rotate(180,222,166)"/><circle cx="222" cy="194" r="7" transform="rotate(0,222,194)"/><path d="M 215 215v 14h 7a 7 7, 0, 0, 0, 0 -14" transform="rotate(-90,222,222)"/><rect x="215" y="229" width="14" height="14" transform="rotate(0,222,236)"/><rect x="215" y="243" width="14" height="14" transform="rotate(0,222,250)"/><rect x="215" y="257" width="14" height="14" transform="rotate(0,222,264)"/><path d="M 215 271v 14h 7a 7 7, 0, 0, 0, 0 -14" transform="rotate(90,222,278)"/><circle cx="222" cy="306" r="7" transform="rotate(0,222,306)"/><rect x="215" y="327" width="14" height="14" transform="rotate(0,222,334)"/><path d="M 215 341v 14h 14v -7a 7 7, 0, 0, 0, -7 -7" transform="rotate(180,222,348)"/><path d="M 215 369v 14h 7a 7 7, 0, 0, 0, 0 -14" transform="rotate(-90,222,376)"/><rect x="215" y="383" width="14" height="14" transform="rotate(0,222,390)"/><path d="M 215 411v 14h 7a 7 7, 0, 0, 0, 0 -14" transform="rotate(0,222,418)"/><rect x="215" y="453" width="14" height="14" transform="rotate(0,222,460)"/><path d="M 229 33v 14h 14v -7a 7 7, 0, 0, 0, -7 -7" transform="rotate(-90,236,40)"/><rect x="229" y="47" width="14" height="14" transform="rotate(0,236,54)"/><circle cx="236" cy="96" r="7" transform="rotate(0,236,96)"/><path d="M 229 117v 14h 14v -7a 7 7, 0, 0, 0, -7 -7" transform="rotate(0,236,124)"/><path d="M 229 131v 14h 14v -7a 7 7, 0, 0, 0, -7 -7" transform="rotate(180,236,138)"/><path d="M 229 159v 14h 7a 7 7, 0, 0, 0, 0 -14" transform="rotate(0,236,166)"/><rect x="229" y="229" width="14" height="14" transform="rotate(0,236,236)"/><rect x="229" y="243" width="14" height="14" transform="rotate(0,236,250)"/><rect x="229" y="257" width="14" height="14" transform="rotate(0,236,264)"/><path d="M 229 285v 14h 7a 7 7, 0, 0, 0, 0 -14" transform="rotate(180,236,292)"/><path d="M 229 313v 14h 14v -7a 7 7, 0, 0, 0, -7 -7" transform="rotate(-90,236,320)"/><rect x="229" y="327" width="14" height="14" transform="rotate(0,236,334)"/><rect x="229" y="341" width="14" height="14" transform="rotate(0,236,348)"/><path d="M 229 355v 14h 7a 7 7, 0, 0, 0, 0 -14" transform="rotate(90,236,362)"/><rect x="229" y="383" width="14" height="14" transform="rotate(0,236,390)"/><rect x="229" y="453" width="14" height="14" transform="rotate(0,236,460)"/><path d="M 243 19v 14h 14v -7a 7 7, 0, 0, 0, -7 -7" transform="rotate(-90,250,26)"/><rect x="243" y="33" width="14" height="14" transform="rotate(0,250,40)"/><rect x="243" y="47" width="14" height="14" transform="rotate(0,250,54)"/><rect x="243" y="61" width="14" height="14" transform="rotate(0,250,68)"/><path d="M 243 75v 14h 7a 7 7, 0, 0, 0, 0 -14" transform="rotate(90,250,82)"/><circle cx="250" cy="110" r="7" transform="rotate(0,250,110)"/><path d="M 243 131v 14h 14v -7a 7 7, 0, 0, 0, -7 -7" transform="rotate(0,250,138)"/><path d="M 243 145v 14h 7a 7 7, 0, 0, 0, 0 -14" transform="rotate(90,250,152)"/><path d="M 243 173v 14h 14v -7a 7 7, 0, 0, 0, -7 -7" transform="rotate(-90,250,180)"/><path d="M 243 187v 14h 7a 7 7, 0, 0, 0, 0 -14" transform="rotate(90,250,194)"/><path d="M 243 215v 14h 7a 7 7, 0, 0, 0, 0 -14" transform="rotate(-90,250,222)"/><path d="M 243 229v 14h 14v -7a 7 7, 0, 0, 0, -7 -7" transform="rotate(90,250,236)"/><rect x="243" y="257" width="14" height="14" transform="rotate(0,250,264)"/><path d="M 243 285v 14h 14v -7a 7 7, 0, 0, 0, -7 -7" transform="rotate(0,250,292)"/><rect x="243" y="299" width="14" height="14" transform="rotate(0,250,306)"/><rect x="243" y="313" width="14" height="14" transform="rotate(0,250,320)"/><path d="M 243 327v 14h 14v -7a 7 7, 0, 0, 0, -7 -7" transform="rotate(90,250,334)"/><path d="M 243 383v 14h 7a 7 7, 0, 0, 0, 0 -14" transform="rotate(0,250,390)"/><circle cx="250" cy="418" r="7" transform="rotate(0,250,418)"/><rect x="243" y="453" width="14" height="14" transform="rotate(0,250,460)"/><path d="M 257 19v 14h 7a 7 7, 0, 0, 0, 0 -14" transform="rotate(0,264,26)"/><path d="M 257 47v 14h 7a 7 7, 0, 0, 0, 0 -14" transform="rotate(0,264,54)"/><rect x="257" y="173" width="14" height="14" transform="rotate(0,264,180)"/><path d="M 257 243v 14h 7a 7 7, 0, 0, 0, 0 -14" transform="rotate(-90,264,250)"/><rect x="257" y="257" width="14" height="14" transform="rotate(0,264,264)"/><path d="M 257 313v 14h 7a 7 7, 0, 0, 0, 0 -14" transform="rotate(0,264,320)"/><path d="M 257 341v 14h 7a 7 7, 0, 0, 0, 0 -14" transform="rotate(-90,264,348)"/><rect x="257" y="355" width="14" height="14" transform="rotate(0,264,362)"/><path d="M 257 369v 14h 14v -7a 7 7, 0, 0, 0, -7 -7" transform="rotate(180,264,376)"/><circle cx="264" cy="404" r="7" transform="rotate(0,264,404)"/><circle cx="264" cy="432" r="7" transform="rotate(0,264,432)"/><rect x="257" y="453" width="14" height="14" transform="rotate(0,264,460)"/><path d="M 271 103v 14h 7a 7 7, 0, 0, 0, 0 -14" transform="rotate(-90,278,110)"/><path d="M 271 117v 14h 14v -7a 7 7, 0, 0, 0, -7 -7" transform="rotate(180,278,124)"/><path d="M 271 145v 14h 7a 7 7, 0, 0, 0, 0 -14" transform="rotate(180,278,152)"/><path d="M 271 173v 14h 7a 7 7, 0, 0, 0, 0 -14" transform="rotate(0,278,180)"/><path d="M 271 257v 14h 7a 7 7, 0, 0, 0, 0 -14" transform="rotate(0,278,264)"/><circle cx="278" cy="306" r="7" transform="rotate(0,278,306)"/><circle cx="278" cy="334" r="7" transform="rotate(0,278,334)"/><rect x="271" y="355" width="14" height="14" transform="rotate(0,278,362)"/><path d="M 271 369v 14h 14v -7a 7 7, 0, 0, 0, -7 -7" transform="rotate(90,278,376)"/><path d="M 271 439v 14h 7a 7 7, 0, 0, 0, 0 -14" transform="rotate(-90,278,446)"/><rect x="271" y="453" width="14" height="14" transform="rotate(0,278,460)"/><path d="M 271 467v 14h 14v -7a 7 7, 0, 0, 0, -7 -7" transform="rotate(180,278,474)"/><path d="M 285 33v 14h 7a 7 7, 0, 0, 0, 0 -14" transform="rotate(-90,292,40)"/><path d="M 285 47v 14h 14v -7a 7 7, 0, 0, 0, -7 -7" transform="rotate(180,292,54)"/><circle cx="292" cy="96" r="7" transform="rotate(0,292,96)"/><rect x="285" y="117" width="14" height="14" transform="rotate(0,292,124)"/><rect x="285" y="145" width="14" height="14" transform="rotate(0,292,152)"/><path d="M 285 187v 14h 7a 7 7, 0, 0, 0, 0 -14" transform="rotate(180,292,194)"/><circle cx="292" cy="236" r="7" transform="rotate(0,292,236)"/><circle cx="292" cy="292" r="7" transform="rotate(0,292,292)"/><circle cx="292" cy="320" r="7" transform="rotate(0,292,320)"/><rect x="285" y="355" width="14" height="14" transform="rotate(0,292,362)"/><path d="M 285 397v 14h 7a 7 7, 0, 0, 0, 0 -14" transform="rotate(180,292,404)"/><path d="M 285 467v 14h 7a 7 7, 0, 0, 0, 0 -14" transform="rotate(0,292,474)"/><rect x="299" y="47" width="14" height="14" transform="rotate(0,306,54)"/><path d="M 299 75v 14h 7a 7 7, 0, 0, 0, 0 -14" transform="rotate(180,306,82)"/><path d="M 299 103v 14h 7a 7 7, 0, 0, 0, 0 -14" transform="rotate(-90,306,110)"/><rect x="299" y="117" width="14" height="14" transform="rotate(0,306,124)"/><path d="M 299 145v 14h 7a 7 7, 0, 0, 0, 0 -14" transform="rotate(0,306,152)"/><path d="M 299 187v 14h 14v -7a 7 7, 0, 0, 0, -7 -7" transform="rotate(0,306,194)"/><path d="M 299 201v 14h 14v -7a 7 7, 0, 0, 0, -7 -7" transform="rotate(180,306,208)"/><circle cx="306" cy="250" r="7" transform="rotate(0,306,250)"/><circle cx="306" cy="278" r="7" transform="rotate(0,306,278)"/><path d="M 299 327v 14h 7a 7 7, 0, 0, 0, 0 -14" transform="rotate(180,306,334)"/><rect x="299" y="355" width="14" height="14" transform="rotate(0,306,362)"/><path d="M 299 369v 14h 14v -7a 7 7, 0, 0, 0, -7 -7" transform="rotate(180,306,376)"/><path d="M 299 397v 14h 7a 7 7, 0, 0, 0, 0 -14" transform="rotate(0,306,404)"/><rect x="313" y="47" width="14" height="14" transform="rotate(0,320,54)"/><rect x="313" y="75" width="14" height="14" transform="rotate(0,320,82)"/><rect x="313" y="117" width="14" height="14" transform="rotate(0,320,124)"/><path d="M 313 201v 14h 14v -7a 7 7, 0, 0, 0, -7 -7" transform="rotate(0,320,208)"/><path d="M 313 215v 14h 7a 7 7, 0, 0, 0, 0 -14" transform="rotate(90,320,222)"/><path d="M 313 257v 14h 7a 7 7, 0, 0, 0, 0 -14" transform="rotate(180,320,264)"/><path d="M 313 285v 14h 7a 7 7, 0, 0, 0, 0 -14" transform="rotate(-90,320,292)"/><rect x="313" y="299" width="14" height="14" transform="rotate(0,320,306)"/><rect x="313" y="313" width="14" height="14" transform="rotate(0,320,320)"/><path d="M 313 327v 14h 14v -7a 7 7, 0, 0, 0, -7 -7" transform="rotate(90,320,334)"/><rect x="313" y="355" width="14" height="14" transform="rotate(0,320,362)"/><rect x="313" y="369" width="14" height="14" transform="rotate(0,320,376)"/><path d="M 313 383v 14h 7a 7 7, 0, 0, 0, 0 -14" transform="rotate(90,320,390)"/><path d="M 313 425v 14h 14v -7a 7 7, 0, 0, 0, -7 -7" transform="rotate(-90,320,432)"/><rect x="313" y="439" width="14" height="14" transform="rotate(0,320,446)"/><rect x="313" y="453" width="14" height="14" transform="rotate(0,320,460)"/><path d="M 313 467v 14h 14v -7a 7 7, 0, 0, 0, -7 -7" transform="rotate(180,320,474)"/><path d="M 327 19v 14h 7a 7 7, 0, 0, 0, 0 -14" transform="rotate(-90,334,26)"/><rect x="327" y="33" width="14" height="14" transform="rotate(0,334,40)"/><rect x="327" y="47" width="14" height="14" transform="rotate(0,334,54)"/><path d="M 327 75v 14h 14v -7a 7 7, 0, 0, 0, -7 -7" transform="rotate(0,334,82)"/><rect x="327" y="89" width="14" height="14" transform="rotate(0,334,96)"/><rect x="327" y="103" width="14" height="14" transform="rotate(0,334,110)"/><rect x="327" y="117" width="14" height="14" transform="rotate(0,334,124)"/><rect x="327" y="131" width="14" height="14" transform="rotate(0,334,138)"/><path d="M 327 145v 14h 7a 7 7, 0, 0, 0, 0 -14" transform="rotate(90,334,152)"/><circle cx="334" cy="194" r="7" transform="rotate(0,334,194)"/><circle cx="334" cy="236" r="7" transform="rotate(0,334,236)"/><path d="M 327 257v 14h 14v -7a 7 7, 0, 0, 0, -7 -7" transform="rotate(0,334,264)"/><path d="M 327 271v 14h 14v -7a 7 7, 0, 0, 0, -7 -7" transform="rotate(180,334,278)"/><path d="M 327 299v 14h 14v -7a 7 7, 0, 0, 0, -7 -7" transform="rotate(0,334,306)"/><rect x="327" y="313" width="14" height="14" transform="rotate(0,334,320)"/><rect x="327" y="355" width="14" height="14" transform="rotate(0,334,362)"/><path d="M 327 397v 14h 14v -7a 7 7, 0, 0, 0, -7 -7" transform="rotate(-90,334,404)"/><rect x="327" y="411" width="14" height="14" transform="rotate(0,334,418)"/><rect x="327" y="425" width="14" height="14" transform="rotate(0,334,432)"/><path d="M 327 439v 14h 14v -7a 7 7, 0, 0, 0, -7 -7" transform="rotate(90,334,446)"/><rect x="327" y="467" width="14" height="14" transform="rotate(0,334,474)"/><path d="M 341 33v 14h 14v -7a 7 7, 0, 0, 0, -7 -7" transform="rotate(0,348,40)"/><rect x="341" y="47" width="14" height="14" transform="rotate(0,348,54)"/><path d="M 341 61v 14h 7a 7 7, 0, 0, 0, 0 -14" transform="rotate(90,348,68)"/><path d="M 341 89v 14h 7a 7 7, 0, 0, 0, 0 -14" transform="rotate(0,348,96)"/><rect x="341" y="117" width="14" height="14" transform="rotate(0,348,124)"/><rect x="341" y="131" width="14" height="14" transform="rotate(0,348,138)"/><path d="M 341 159v 14h 14v -7a 7 7, 0, 0, 0, -7 -7" transform="rotate(-90,348,166)"/><path d="M 341 173v 14h 14v -7a 7 7, 0, 0, 0, -7 -7" transform="rotate(180,348,180)"/><path d="M 341 215v 14h 7a 7 7, 0, 0, 0, 0 -14" transform="rotate(180,348,222)"/><path d="M 341 271v 14h 7a 7 7, 0, 0, 0, 0 -14" transform="rotate(0,348,278)"/><rect x="341" y="313" width="14" height="14" transform="rotate(0,348,320)"/><rect x="341" y="327" width="14" height="14" transform="rotate(0,348,334)"/><rect x="341" y="341" width="14" height="14" transform="rotate(0,348,348)"/><rect x="341" y="355" width="14" height="14" transform="rotate(0,348,362)"/><rect x="341" y="369" width="14" height="14" transform="rotate(0,348,376)"/><rect x="341" y="383" width="14" height="14" transform="rotate(0,348,390)"/><rect x="341" y="397" width="14" height="14" transform="rotate(0,348,404)"/><path d="M 341 425v 14h 7a 7 7, 0, 0, 0, 0 -14" transform="rotate(0,348,432)"/><rect x="341" y="467" width="14" height="14" transform="rotate(0,348,474)"/><circle cx="362" cy="26" r="7" transform="rotate(0,362,26)"/><circle cx="362" cy="82" r="7" transform="rotate(0,362,82)"/><path d="M 355 103v 14h 7a 7 7, 0, 0, 0, 0 -14" transform="rotate(-90,362,110)"/><rect x="355" y="117" width="14" height="14" transform="rotate(0,362,124)"/><rect x="355" y="131" width="14" height="14" transform="rotate(0,362,138)"/><rect x="355" y="145" width="14" height="14" transform="rotate(0,362,152)"/><rect x="355" y="159" width="14" height="14" transform="rotate(0,362,166)"/><path d="M 355 173v 14h 14v -7a 7 7, 0, 0, 0, -7 -7" transform="rotate(90,362,180)"/><rect x="355" y="215" width="14" height="14" transform="rotate(0,362,222)"/><circle cx="362" cy="264" r="7" transform="rotate(0,362,264)"/><path d="M 355 285v 14h 7a 7 7, 0, 0, 0, 0 -14" transform="rotate(180,362,292)"/><path d="M 355 313v 14h 7a 7 7, 0, 0, 0, 0 -14" transform="rotate(0,362,320)"/><rect x="355" y="355" width="14" height="14" transform="rotate(0,362,362)"/><rect x="355" y="369" width="14" height="14" transform="rotate(0,362,376)"/><rect x="355" y="383" width="14" height="14" transform="rotate(0,362,390)"/><rect x="355" y="397" width="14" height="14" transform="rotate(0,362,404)"/><path d="M 355 411v 14h 14v -7a 7 7, 0, 0, 0, -7 -7" transform="rotate(180,362,418)"/><path d="M 355 453v 14h 14v -7a 7 7, 0, 0, 0, -7 -7" transform="rotate(-90,362,460)"/><rect x="355" y="467" width="14" height="14" transform="rotate(0,362,474)"/><rect x="369" y="131" width="14" height="14" transform="rotate(0,376,138)"/><rect x="369" y="145" width="14" height="14" transform="rotate(0,376,152)"/><path d="M 369 201v 14h 14v -7a 7 7, 0, 0, 0, -7 -7" transform="rotate(-90,376,208)"/><rect x="369" y="215" width="14" height="14" transform="rotate(0,376,222)"/><rect x="369" y="229" width="14" height="14" transform="rotate(0,376,236)"/><path d="M 369 243v 14h 7a 7 7, 0, 0, 0, 0 -14" transform="rotate(90,376,250)"/><path d="M 369 285v 14h 14v -7a 7 7, 0, 0, 0, -7 -7" transform="rotate(0,376,292)"/><path d="M 369 299v 14h 14v -7a 7 7, 0, 0, 0, -7 -7" transform="rotate(180,376,306)"/><path d="M 369 341v 14h 7a 7 7, 0, 0, 0, 0 -14" transform="rotate(-90,376,348)"/><rect x="369" y="355" width="14" height="14" transform="rotate(0,376,362)"/><rect x="369" y="411" width="14" height="14" transform="rotate(0,376,418)"/><path d="M 369 425v 14h 14v -7a 7 7, 0, 0, 0, -7 -7" transform="rotate(180,376,432)"/><rect x="369" y="453" width="14" height="14" transform="rotate(0,376,460)"/><path d="M 369 467v 14h 14v -7a 7 7, 0, 0, 0, -7 -7" transform="rotate(90,376,474)"/><rect x="383" y="131" width="14" height="14" transform="rotate(0,390,138)"/><rect x="383" y="145" width="14" height="14" transform="rotate(0,390,152)"/><rect x="383" y="159" width="14" height="14" transform="rotate(0,390,166)"/><rect x="383" y="173" width="14" height="14" transform="rotate(0,390,180)"/><rect x="383" y="187" width="14" height="14" transform="rotate(0,390,194)"/><path d="M 383 201v 14h 14v -7a 7 7, 0, 0, 0, -7 -7" transform="rotate(90,390,208)"/><path d="M 383 257v 14h 7a 7 7, 0, 0, 0, 0 -14" transform="rotate(180,390,264)"/><rect x="383" y="299" width="14" height="14" transform="rotate(0,390,306)"/><path d="M 383 313v 14h 7a 7 7, 0, 0, 0, 0 -14" transform="rotate(90,390,320)"/><rect x="383" y="355" width="14" height="14" transform="rotate(0,390,362)"/><circle cx="390" cy="390" r="7" transform="rotate(0,390,390)"/><rect x="383" y="411" width="14" height="14" transform="rotate(0,390,418)"/><rect x="383" y="425" width="14" height="14" transform="rotate(0,390,432)"/><rect x="383" y="439" width="14" height="14" transform="rotate(0,390,446)"/><path d="M 383 453v 14h 14v -7a 7 7, 0, 0, 0, -7 -7" transform="rotate(90,390,460)"/><path d="M 397 131v 14h 14v -7a 7 7, 0, 0, 0, -7 -7" transform="rotate(0,404,138)"/><rect x="397" y="145" width="14" height="14" transform="rotate(0,404,152)"/><rect x="397" y="159" width="14" height="14" transform="rotate(0,404,166)"/><rect x="397" y="173" width="14" height="14" transform="rotate(0,404,180)"/><path d="M 397 187v 14h 14v -7a 7 7, 0, 0, 0, -7 -7" transform="rotate(90,404,194)"/><path d="M 397 229v 14h 14v -7a 7 7, 0, 0, 0, -7 -7" transform="rotate(-90,404,236)"/><rect x="397" y="243" width="14" height="14" transform="rotate(0,404,250)"/><rect x="397" y="257" width="14" height="14" transform="rotate(0,404,264)"/><path d="M 397 271v 14h 7a 7 7, 0, 0, 0, 0 -14" transform="rotate(90,404,278)"/><path d="M 397 299v 14h 7a 7 7, 0, 0, 0, 0 -14" transform="rotate(0,404,306)"/><rect x="397" y="355" width="14" height="14" transform="rotate(0,404,362)"/><rect x="397" y="411" width="14" height="14" transform="rotate(0,404,418)"/><circle cx="404" cy="474" r="7" transform="rotate(0,404,474)"/><path d="M 411 159v 14h 7a 7 7, 0, 0, 0, 0 -14" transform="rotate(0,418,166)"/><path d="M 411 229v 14h 7a 7 7, 0, 0, 0, 0 -14" transform="rotate(0,418,236)"/><circle cx="418" cy="334" r="7" transform="rotate(0,418,334)"/><path d="M 411 355v 14h 14v -7a 7 7, 0, 0, 0, -7 -7" transform="rotate(0,418,362)"/><rect x="411" y="369" width="14" height="14" transform="rotate(0,418,376)"/><rect x="411" y="383" width="14" height="14" transform="rotate(0,418,390)"/><rect x="411" y="397" width="14" height="14" transform="rotate(0,418,404)"/><rect x="411" y="411" width="14" height="14" transform="rotate(0,418,418)"/><path d="M 411 425v 14h 14v -7a 7 7, 0, 0, 0, -7 -7" transform="rotate(180,418,432)"/><path d="M 425 131v 14h 7a 7 7, 0, 0, 0, 0 -14" transform="rotate(-90,432,138)"/><path d="M 425 145v 14h 14v -7a 7 7, 0, 0, 0, -7 -7" transform="rotate(180,432,152)"/><path d="M 425 201v 14h 14v -7a 7 7, 0, 0, 0, -7 -7" transform="rotate(-90,432,208)"/><path d="M 425 215v 14h 14v -7a 7 7, 0, 0, 0, -7 -7" transform="rotate(180,432,222)"/><path d="M 425 243v 14h 7a 7 7, 0, 0, 0, 0 -14" transform="rotate(-90,432,250)"/><rect x="425" y="257" width="14" height="14" transform="rotate(0,432,264)"/><rect x="425" y="271" width="14" height="14" transform="rotate(0,432,278)"/><rect x="425" y="285" width="14" height="14" transform="rotate(0,432,292)"/><rect x="425" y="299" width="14" height="14" transform="rotate(0,432,306)"/><path d="M 425 313v 14h 7a 7 7, 0, 0, 0, 0 -14" transform="rotate(90,432,320)"/><circle cx="432" cy="348" r="7" transform="rotate(0,432,348)"/><path d="M 425 383v 14h 7a 7 7, 0, 0, 0, 0 -14" transform="rotate(0,432,390)"/><rect x="425" y="411" width="14" height="14" transform="rotate(0,432,418)"/><rect x="425" y="425" width="14" height="14" transform="rotate(0,432,432)"/><rect x="425" y="439" width="14" height="14" transform="rotate(0,432,446)"/><path d="M 425 453v 14h 7a 7 7, 0, 0, 0, 0 -14" transform="rotate(90,432,460)"/><rect x="439" y="145" width="14" height="14" transform="rotate(0,446,152)"/><path d="M 439 173v 14h 7a 7 7, 0, 0, 0, 0 -14" transform="rotate(180,446,180)"/><path d="M 439 201v 14h 14v -7a 7 7, 0, 0, 0, -7 -7" transform="rotate(0,446,208)"/><rect x="439" y="215" width="14" height="14" transform="rotate(0,446,222)"/><path d="M 439 229v 14h 14v -7a 7 7, 0, 0, 0, -7 -7" transform="rotate(180,446,236)"/><path d="M 439 411v 14h 7a 7 7, 0, 0, 0, 0 -14" transform="rotate(0,446,418)"/><circle cx="446" cy="474" r="7" transform="rotate(0,446,474)"/><path d="M 453 131v 14h 7a 7 7, 0, 0, 0, 0 -14" transform="rotate(-90,460,138)"/><path d="M 453 145v 14h 14v -7a 7 7, 0, 0, 0, -7 -7" transform="rotate(90,460,152)"/><rect x="453" y="173" width="14" height="14" transform="rotate(0,460,180)"/><path d="M 453 215v 14h 14v -7a 7 7, 0, 0, 0, -7 -7" transform="rotate(0,460,222)"/><path d="M 453 229v 14h 14v -7a 7 7, 0, 0, 0, -7 -7" transform="rotate(90,460,236)"/><path d="M 453 257v 14h 14v -7a 7 7, 0, 0, 0, -7 -7" transform="rotate(-90,460,264)"/><path d="M 453 271v 14h 7a 7 7, 0, 0, 0, 0 -14" transform="rotate(90,460,278)"/><path d="M 453 313v 14h 14v -7a 7 7, 0, 0, 0, -7 -7" transform="rotate(-90,460,320)"/><rect x="453" y="327" width="14" height="14" transform="rotate(0,460,334)"/><rect x="453" y="341" width="14" height="14" transform="rotate(0,460,348)"/><rect x="453" y="355" width="14" height="14" transform="rotate(0,460,362)"/><rect x="453" y="369" width="14" height="14" transform="rotate(0,460,376)"/><path d="M 453 383v 14h 7a 7 7, 0, 0, 0, 0 -14" transform="rotate(90,460,390)"/><path d="M 467 173v 14h 7a 7 7, 0, 0, 0, 0 -14" transform="rotate(0,474,180)"/><circle cx="474" cy="208" r="7" transform="rotate(0,474,208)"/><path d="M 467 257v 14h 7a 7 7, 0, 0, 0, 0 -14" transform="rotate(0,474,264)"/><path d="M 467 313v 14h 7a 7 7, 0, 0, 0, 0 -14" transform="rotate(0,474,320)"/><path d="M 467 355v 14h 7a 7 7, 0, 0, 0, 0 -14" transform="rotate(0,474,362)"/><circle cx="474" cy="418" r="7" transform="rotate(0,474,418)"/><circle cx="474" cy="460" r="7" transform="rotate(0,474,460)"/></clipPath><clipPath id="clip-path-corners-square-color-0-0"><path clip-rule="evenodd" d="M 19 54v 28a 35 35, 0, 0, 0, 35 35h 28a 35 35, 0, 0, 0, 35 -35v -28a 35 35, 0, 0, 0, -35 -35h -28a 35 35, 0, 0, 0, -35 35M 54 33h 28a 21 21, 0, 0, 1, 21 21v 28a 21 21, 0, 0, 1, -21 21h -28a 21 21, 0, 0, 1, -21 -21v -28a 21 21, 0, 0, 1, 21 -21" transform="rotate(0,68,68)"/></clipPath><clipPath id="clip-path-corners-dot-color-0-0"><circle cx="68" cy="68" r="21" transform="rotate(0,68,68)"/></clipPath><clipPath id="clip-path-corners-square-color-1-0"><path clip-rule="evenodd" d="M 383 54v 28a 35 35, 0, 0, 0, 35 35h 28a 35 35, 0, 0, 0, 35 -35v -28a 35 35, 0, 0, 0, -35 -35h -28a 35 35, 0, 0, 0, -35 35M 418 33h 28a 21 21, 0, 0, 1, 21 21v 28a 21 21, 0, 0, 1, -21 21h -28a 21 21, 0, 0, 1, -21 -21v -28a 21 21, 0, 0, 1, 21 -21" transform="rotate(90,432,68)"/></clipPath><clipPath id="clip-path-corners-dot-color-1-0"><circle cx="432" cy="68" r="21" transform="rotate(90,432,68)"/></clipPath><clipPath id="clip-path-corners-square-color-0-1"><path clip-rule="evenodd" d="M 19 418v 28a 35 35, 0, 0, 0, 35 35h 28a 35 35, 0, 0, 0, 35 -35v -28a 35 35, 0, 0, 0, -35 -35h -28a 35 35, 0, 0, 0, -35 35M 54 397h 28a 21 21, 0, 0, 1, 21 21v 28a 21 21, 0, 0, 1, -21 21h -28a 21 21, 0, 0, 1, -21 -21v -28a 21 21, 0, 0, 1, 21 -21" transform="rotate(-90,68,432)"/></clipPath><clipPath id="clip-path-corners-dot-color-0-1"><circle cx="68" cy="432" r="21" transform="rotate(-90,68,432)"/></clipPath></defs><rect x="0" y="0" height="500" width="500" clip-path="url('#clip-path-background-color')" fill="#fff"/><rect x="0" y="0" height="500" width="500" clip-path="url('#clip-path-dot-color')" fill="#000000"/><rect x="19" y="19" height="98" width="98" clip-path="url('#clip-path-corners-square-color-0-0')" fill="#000000"/><rect x="47" y="47" height="42" width="42" clip-path="url('#clip-path-corners-dot-color-0-0')" fill="#000000"/><rect x="383" y="19" height="98" width="98" clip-path="url('#clip-path-corners-square-color-1-0')" fill="#000000"/><rect x="411" y="47" height="42" width="42" clip-path="url('#clip-path-corners-dot-color-1-0')" fill="#000000"/><rect x="19" y="383" height="98" width="98" clip-path="url('#clip-path-corners-square-color-0-1')" fill="#000000"/><rect x="47" y="411" height="42" width="42" clip-path="url('#clip-path-corners-dot-color-0-1')" fill="#000000"/></svg>