<?xml version="1.0" encoding="UTF-8"?>
<svg id="Layer_1" data-name="Layer 1" xmlns="http://www.w3.org/2000/svg" viewBox="0 0 399.23 420.67">
  <defs>
    <style>
      .cls-1 {
        fill: #574943;
      }

      .cls-2 {
        fill: #7dd2e3;
      }

      .cls-3 {
        fill: #e09d38;
      }

      .cls-4 {
        fill: #29617d;
      }

      .cls-5 {
        fill: #ffc654;
      }

      .cls-6 {
        opacity: .3;
      }

      .cls-7 {
        fill: #362c29;
      }

      .cls-8 {
        fill: #f2b63d;
      }

      .cls-9 {
        fill: #0a0808;
      }

      .cls-10 {
        fill: #fff;
      }

      .cls-11 {
        fill: #c8dfe8;
      }

      .cls-12 {
        fill: #e6e1dd;
      }

      .cls-13 {
        fill: #b4ced6;
      }

      .cls-14 {
        fill: #f4efe9;
      }

      .cls-15 {
        fill: #17435c;
      }

      .cls-16 {
        fill: #f7f2e8;
      }

      .cls-17 {
        fill: #4290b8;
      }

      .cls-18 {
        fill: #ff9f3d;
      }

      .cls-19 {
        fill: #a1b4bf;
      }

      .cls-20 {
        opacity: .6;
      }

      .cls-20, .cls-21 {
        fill: #275c78;
      }

      .cls-22 {
        fill: #ffec7a;
      }

      .cls-23 {
        fill: #d1d1d1;
      }

      .cls-24 {
        fill: #e8f3ff;
      }
    </style>
  </defs>
  <g>
    <g>
      <g>
        <polygon class="cls-4" points="115.36 380.75 .05 314.17 .06 354.03 115.4 420.67 120.75 386.88 115.36 380.75"/>
        <polygon class="cls-21" points="278.5 380.73 115.36 380.75 115.4 420.67 278.52 420.59 282.72 384.95 278.5 380.73"/>
        <polygon class="cls-15" points="393.87 314.11 278.5 380.73 278.52 420.59 393.88 353.99 393.87 314.11"/>
        <polygon class="cls-17" points="278.5 380.73 115.36 380.75 .05 314.17 0 219.96 115.36 153.35 278.54 153.36 393.87 219.96 393.87 314.11 278.5 380.73"/>
        <polygon class="cls-4" points="222.7 210.88 224.16 220.91 230.03 234.78 245.49 242.69 257.48 233.51 260.64 212.2 222.7 210.88"/>
        <polygon class="cls-4" points="293.16 275.29 295.25 297.76 299.88 307.26 310.98 322.01 322.73 322.01 330.04 314.11 333.71 302.51 341.55 293.62 343.62 277.39 293.16 275.29"/>
        <polygon class="cls-20" points="67.16 210 70.48 245.51 71.23 278.5 91.46 308.36 127.58 328.54 163.7 329.54 186.46 304.78 195.9 272.58 214.86 254.62 217.04 220.91 210.51 188.64 67.16 210"/>
        <polygon class="cls-4" points="86.9 261.74 86.9 268.76 89.45 276.59 104.05 280.55 116.57 278 121.19 268.93 121.19 263.16 86.9 261.74"/>
        <polygon class="cls-4" points="127.58 250.03 128.28 289.76 142.24 332.43 170.56 350.43 189.45 347.76 200.97 323.71 204.34 297.93 220.85 275.72 218.54 243.29 176.45 236.81 127.58 250.03"/>
        <polygon class="cls-4" points="206.88 255.79 208.28 259.09 212.9 263.93 217.04 265.1 221.2 261.93 224.16 256.39 206.88 255.79"/>
        <g>
          <polygon class="cls-2" points="240.72 344.34 239.38 343.57 237.48 343.57 230.67 347.5 230.67 348.58 232.01 349.36 233.91 349.36 240.72 345.44 240.72 344.34"/>
          <polygon class="cls-2" points="260.76 341.44 259.42 340.67 257.53 340.67 250.71 344.59 250.71 345.7 252.06 346.47 253.95 346.47 260.76 342.54 260.76 341.44"/>
          <polygon class="cls-2" points="245.74 361.61 244.4 360.84 242.51 360.84 235.7 364.76 235.7 365.86 237.03 366.62 238.92 366.62 245.74 362.7 245.74 361.61"/>
          <polygon class="cls-2" points="151.2 358.71 149.86 357.94 147.97 357.94 141.16 361.87 141.16 362.96 142.5 363.73 144.39 363.73 151.2 359.8 151.2 358.71"/>
          <polygon class="cls-2" points="113.54 354.76 112.2 353.99 110.3 353.99 103.5 357.92 103.5 359.01 104.83 359.79 106.73 359.79 113.54 355.85 113.54 354.76"/>
          <polygon class="cls-2" points="133.31 340.44 131.96 339.66 130.07 339.66 123.26 343.59 123.26 344.69 124.6 345.45 126.5 345.45 133.31 341.54 133.31 340.44"/>
          <polygon class="cls-2" points="62.45 298.7 61.11 297.93 59.22 297.93 52.41 301.87 52.41 302.96 53.74 303.73 55.64 303.73 62.45 299.8 62.45 298.7"/>
          <polygon class="cls-2" points="45.61 294.6 44.27 293.82 42.38 293.82 35.57 297.76 35.57 298.85 36.91 299.62 38.81 299.62 45.61 295.69 45.61 294.6"/>
          <polygon class="cls-2" points="35.77 309.14 34.44 308.36 32.53 308.36 25.73 312.29 25.73 313.39 27.07 314.17 28.96 314.17 35.77 310.24 35.77 309.14"/>
          <polygon class="cls-2" points="22.17 276.38 20.83 275.6 18.94 275.6 12.13 279.54 12.13 280.63 13.46 281.4 15.36 281.4 22.17 277.47 22.17 276.38"/>
          <polygon class="cls-2" points="107.79 295.8 106.45 295.03 104.55 295.03 97.75 298.97 97.75 300.06 99.09 300.83 100.98 300.83 107.79 296.9 107.79 295.8"/>
          <polygon class="cls-2" points="55.65 316.68 54.32 315.91 52.42 315.91 45.61 319.83 45.61 320.93 46.95 321.7 48.84 321.7 55.65 317.78 55.65 316.68"/>
          <polygon class="cls-2" points="24.97 216.02 23.64 215.25 21.75 215.25 14.94 219.17 14.94 220.27 16.27 221.05 18.17 221.05 24.97 217.12 24.97 216.02"/>
          <polygon class="cls-2" points="22.17 227.98 20.83 227.2 18.94 227.2 12.13 231.14 12.13 232.23 13.46 233 15.36 233 22.17 229.06 22.17 227.98"/>
          <polygon class="cls-2" points="125.78 357.66 124.44 356.89 122.54 356.89 115.74 360.82 115.74 361.91 117.07 362.68 118.97 362.68 125.78 358.75 125.78 357.66"/>
          <polygon class="cls-2" points="338.73 321.59 337.39 320.82 335.5 320.82 328.69 324.75 328.69 325.83 330.02 326.61 331.92 326.61 338.73 322.68 338.73 321.59"/>
          <polygon class="cls-2" points="367.68 285.7 366.34 284.92 364.44 284.92 357.63 288.86 357.63 289.95 358.97 290.72 360.87 290.72 367.68 286.79 367.68 285.7"/>
          <polygon class="cls-2" points="367.68 309.75 366.34 308.97 364.44 308.97 357.63 312.9 357.63 313.99 358.97 314.77 360.87 314.77 367.68 310.84 367.68 309.75"/>
          <polygon class="cls-2" points="298.18 256.38 296.85 255.61 294.95 255.61 288.14 259.53 288.14 260.63 289.48 261.4 291.38 261.4 298.18 257.47 298.18 256.38"/>
          <polygon class="cls-2" points="385.72 243.47 384.38 242.69 382.49 242.69 375.68 246.63 375.68 247.71 377.02 248.48 378.92 248.48 385.72 244.56 385.72 243.47"/>
          <polygon class="cls-2" points="373.61 243.47 372.28 242.69 370.38 242.69 363.57 246.63 363.57 247.71 364.91 248.48 366.8 248.48 373.61 244.56 373.61 243.47"/>
          <polygon class="cls-2" points="329.36 192.8 328.03 192.02 326.13 192.02 319.32 195.96 319.32 197.05 320.66 197.82 322.56 197.82 329.36 193.89 329.36 192.8"/>
          <polygon class="cls-2" points="302.57 177.75 301.24 176.97 299.35 176.97 292.54 180.9 292.54 182 293.87 182.76 295.77 182.76 302.57 178.83 302.57 177.75"/>
          <polygon class="cls-2" points="292.12 206.41 290.78 205.64 288.88 205.64 282.07 209.57 282.07 210.66 283.42 211.43 285.31 211.43 292.12 207.5 292.12 206.41"/>
          <polygon class="cls-2" points="292.76 196.55 291.43 195.77 289.54 195.77 282.73 199.7 282.73 200.8 284.06 201.56 285.95 201.56 292.76 197.64 292.76 196.55"/>
        </g>
      </g>
      <g>
        <g>
          <polygon class="cls-13" points="188.91 194.4 196.58 202.04 210.51 188.64 200.97 131.08 183 139.64 188.91 194.4"/>
          <polygon class="cls-11" points="188.89 142.69 196.58 202.04 171.07 202.3 168.7 198.04 163.7 139.64 168.35 137.58 188.89 142.69"/>
          <polygon class="cls-13" points="166.79 142.92 171.07 202.3 154.85 207.51 152.08 169.04 149.61 143.86 160.82 139.64 166.79 142.92"/>
          <polygon class="cls-19" points="152.72 147.44 154.85 207.51 149.61 224.75 147.25 220.8 142.24 159.91 152.72 147.44"/>
          <polygon class="cls-13" points="148.17 162.38 149.61 224.75 120.73 243.71 118.64 237.78 121.73 175.45 140.23 164.97 148.17 162.38"/>
          <polygon class="cls-11" points="123.14 178.82 120.73 243.71 75.9 239.26 80.03 184.77 83.78 168.14 123.14 178.82"/>
          <polygon class="cls-24" points="76.7 149.59 73.41 167.61 67.16 210 75.9 239.26 83.42 188.49 84.28 174.96 84.28 159.91 76.7 149.59"/>
          <polygon class="cls-10" points="190.4 118.96 156.21 116.49 129.68 128.97 99.69 132.69 76.7 149.59 84.28 174.96 123.14 178.82 148.17 162.38 152.72 147.44 166.79 142.92 188.89 142.69 200.97 131.08 190.4 118.96"/>
        </g>
        <g>
          <polygon class="cls-13" points="210.94 195.98 218.54 243.29 204.34 247.86 198.06 218.85 195.9 196.8 205.72 193.1 210.94 195.98"/>
          <polygon class="cls-19" points="198.63 199.94 204.34 247.86 199.74 262.94 197.68 259.48 189.45 210.85 198.63 199.94"/>
          <polygon class="cls-13" points="194.65 213.01 199.74 262.94 170.56 265.1 168.73 259.9 167.58 210.01 186.67 208.52 194.65 213.01"/>
          <polygon class="cls-11" points="168.83 212.96 170.56 265.1 135.23 275.64 135 255.24 138.28 218.06 168.83 212.96"/>
          <polygon class="cls-24" points="132.09 201.82 131.42 233.16 127.58 250.03 135.23 275.64 140.18 251.43 138.72 224.03 138.72 210.85 132.09 201.82"/>
          <polygon class="cls-10" points="203.24 185.61 178.46 183.77 152.2 187.03 132.09 201.82 138.72 224.03 168.83 212.96 194.65 213.01 198.63 199.94 210.94 195.98 203.24 185.61"/>
        </g>
        <g>
          <polygon class="cls-13" points="222.09 254.43 223.01 254.51 224.16 256.39 218.98 260.36 217.53 257.68 222.09 254.43"/>
          <polygon class="cls-11" points="210.74 259.64 218.98 260.36 218.42 258.03 217.63 257.17 211 256.92 210.74 259.64"/>
          <polygon class="cls-11" points="208.65 251.02 209.76 250.21 210.03 250.61 208.65 254.9 206.88 255.79 208.65 251.02"/>
          <polygon class="cls-24" points="206.88 255.79 208.28 254.21 210.63 255.35 211.51 257.44 210.74 259.64 206.88 255.79"/>
          <polygon class="cls-19" points="221.2 250.81 222.3 251.74 224.16 256.39 222.76 254.71 221.33 252.84 221.2 250.81"/>
          <polygon class="cls-10" points="221.2 250.81 216.22 248.88 209.76 250.21 208.28 254.21 211.51 257.44 218.42 258.03 222.76 254.71 221.2 250.81"/>
        </g>
        <g>
          <polygon class="cls-13" points="257.78 200.63 259.95 200.94 260.64 212.2 249.26 220.91 245.49 208.27 257.78 200.63"/>
          <polygon class="cls-11" points="231.16 219.33 249.26 220.91 248.98 209.33 245.55 207.71 230.99 206.3 230.43 207.99 231.16 219.33"/>
          <polygon class="cls-24" points="223.39 199.67 222.7 210.88 231.16 219.33 231.54 207.81 229.4 201.51 223.39 199.67"/>
          <polygon class="cls-10" points="256.01 191.09 243.44 186.21 227.12 189.57 223.39 199.67 231.54 207.81 248.98 209.33 259.95 200.94 256.01 191.09"/>
        </g>
        <g>
          <polygon class="cls-19" points="173.92 272.29 174.98 273.79 177.74 282.79 173.91 280.73 173.92 272.29"/>
          <polygon class="cls-13" points="176.45 280.55 177.74 282.79 166.01 286.25 164.75 283.22 174.02 280.55 176.45 280.55"/>
          <polygon class="cls-11" points="148.26 286.25 149.05 282.74 164.64 282.74 165.71 283.71 166.01 286.25 148.26 286.25"/>
          <polygon class="cls-24" points="148.34 281.02 147.05 283.31 148.26 286.25 149.44 283.71 149.9 281.92 148.34 281.02"/>
          <polygon class="cls-10" points="148.34 281.02 168.39 272.29 173.92 272.29 176.45 280.55 165.71 283.71 149.44 283.71 148.34 281.02"/>
        </g>
        <g>
          <polygon class="cls-19" points="119.78 259.92 111.96 267.92 115.72 272.29 121.19 263.16 119.78 259.92"/>
          <polygon class="cls-13" points="114.76 268.3 115.72 272.29 105.11 275.72 102.77 270.1 111.02 267.92 114.76 268.3"/>
          <polygon class="cls-11" points="89.45 272.58 90.25 266.85 104.26 269.71 105.03 271.44 105.11 275.72 89.45 272.58"/>
          <polygon class="cls-24" points="86.9 261.74 88.32 258.61 89.85 259.17 91.46 265.81 90.64 268.56 89.45 272.58 86.9 261.74"/>
          <polygon class="cls-10" points="111.34 251.43 97.6 251.43 88.32 258.61 90.64 268.56 105.03 271.44 114.76 268.3 119.78 259.92 111.34 251.43"/>
        </g>
        <g>
          <polygon class="cls-19" points="341.55 264.81 330.04 276.59 335.58 290.83 343.62 277.39 341.55 264.81"/>
          <polygon class="cls-13" points="334.16 277.14 335.58 290.83 319.96 295.87 316.51 279.79 328.66 276.59 334.16 277.14"/>
          <polygon class="cls-11" points="296.91 291.25 298.09 275.01 318.7 279.23 319.84 281.77 319.96 295.87 296.91 291.25"/>
          <polygon class="cls-24" points="293.16 275.29 295.25 262.89 297.51 263.71 299.88 273.49 298.67 277.53 296.91 291.25 293.16 275.29"/>
          <polygon class="cls-10" points="329.12 252.33 308.9 252.33 295.25 262.89 298.67 277.53 319.84 281.77 334.16 277.14 341.55 264.81 329.12 252.33"/>
        </g>
        <g>
          <polygon class="cls-11" points="222.68 276.73 239.16 266.75 238.45 265.91 224.32 273.44 222.68 276.73"/>
          <polygon class="cls-24" points="225.15 266.46 224.19 269.15 222.68 276.73 224.19 274.55 225.71 269.67 225.15 266.46"/>
          <polygon class="cls-10" points="224.19 274.55 238.45 265.91 232.58 263.36 225.15 266.46 224.19 274.55"/>
        </g>
        <g>
          <polygon class="cls-19" points="250.53 234.78 251.2 236.75 251.2 249.86 248.62 247.3 250.53 234.78"/>
          <polygon class="cls-11" points="251.2 249.86 250.53 247.3 249.34 247.3 229.68 258.2 230.17 261.93 251.2 249.86"/>
          <polygon class="cls-24" points="226.82 252.9 226.38 255.73 230.17 261.93 230.44 258.83 229.18 254.4 226.82 252.9"/>
          <polygon class="cls-24" points="221.88 228.22 221.2 229.89 229.09 240.83 230.03 237.65 223.08 228.91 221.88 228.22"/>
          <polygon class="cls-10" points="226.82 252.9 229.12 238.08 221.88 228.22 239.66 228.22 250.53 234.78 250.53 247.3 230.44 258.83 226.82 252.9"/>
        </g>
      </g>
    </g>
    <g>
      <g>
        <polygon class="cls-6" points="118.38 137.58 109.32 137.58 102.93 141.27 102.93 146.49 109.32 150.18 118.37 150.18 124.77 146.49 124.77 141.27 118.38 137.58"/>
        <g>
          <polygon class="cls-9" points="105.91 141.84 103.59 142.47 102.93 144.38 103.74 143.77 103.42 145.43 104.56 144.6 104.63 145.76 105.4 144.83 108.5 143.5 110.25 142.51 110.25 141.09 109 140.45 107.86 140.45 105.91 141.84"/>
          <polygon class="cls-7" points="108.43 135.34 108.98 132.93 111.29 134.19 111.46 137.18 110.95 140.72 109.89 141.23 108.98 139.59 108.51 137.39 108.43 135.34"/>
          <polygon class="cls-10" points="106.73 134.29 108.98 132.93 109.42 134.83 109.38 137.19 109.89 139.11 109.89 141.23 108.6 141.84 106.65 140.96 106.05 137.84 106.73 134.29"/>
        </g>
        <polygon class="cls-7" points="102.24 100.85 104.47 97.65 107.08 96.56 109.94 97.15 112.71 100.18 114.31 103.54 110.69 105.48 106.66 106.61 103.23 106.45 101.53 105.18 102.24 100.85"/>
        <polygon class="cls-18" points="99.96 106.46 97.82 108.22 103.23 106.45 103.5 104.64 99.96 106.46"/>
        <polygon class="cls-7" points="101.73 103.92 97.82 108.22 102.39 105.84 104.22 105.67 104.28 104.41 103.14 103.13 101.73 103.92"/>
        <polygon class="cls-7" points="119.63 134.35 122.54 138.05 126.4 139.84 124.57 142.31 120.61 143.95 115.87 144.62 119.63 134.35"/>
        <polygon class="cls-9" points="119.17 144.16 118.9 141.47 118 142.81 118.5 144.25 119.17 144.16"/>
        <polygon class="cls-7" points="114.31 103.54 117.53 110.27 119.91 119.44 120.5 129.41 120.07 137.08 118.88 141.23 114.82 145.18 109.77 133.87 107.29 115.19 103.85 108.7 103.95 106.45 108 102.62 114.31 103.54"/>
        <polygon class="cls-14" points="111.33 103.27 113.01 103.35 113.6 104.38 113.22 105.88 111.22 107.59 110.46 109.26 110.68 112.26 113.05 119.15 114.17 126.38 114.82 133.11 116.41 137.22 113.34 145.38 107.95 146.1 102.96 141.98 100.16 135.72 99.49 127.43 100.18 117.72 101.93 111.25 103.5 108.19 103.95 106.45 104.13 107.71 105.65 108.55 108.21 108.09 109.33 106.61 109.83 104.62 111.33 103.27"/>
        <polygon class="cls-23" points="114.12 145.28 113.34 145.38 112.69 141.98 114.17 138.59 115.34 143.56 114.12 145.28"/>
        <polygon class="cls-9" points="114.03 115.95 114.88 120.06 114.98 124.97 116.13 129.38 118.18 131.93 120.34 132.28 120.35 132.1 118.82 130.57 117.38 127.39 116.41 124.21 117.09 119.38 114.94 113.36 114.03 115.95"/>
        <polygon class="cls-7" points="121.32 129.16 120.82 124.94 121.07 120.17 119.89 115.77 118.45 113.34 116.41 112.63 114.94 113.36 114.52 115.61 115.67 119.75 115.7 124.38 116.95 129.16 118.78 131.74 122.73 132.66 121.32 129.16"/>
        <g>
          <polygon class="cls-9" points="113.34 146.14 111.03 146.76 110.37 148.67 111.18 148.07 110.86 149.73 112 148.89 112.07 150.05 112.84 149.12 115.94 147.79 117.69 146.81 117.69 145.38 116.44 144.74 115.3 144.74 113.34 146.14"/>
          <polygon class="cls-7" points="115.87 139.63 116.41 137.22 118.73 138.48 118.9 141.47 118.39 145.02 117.33 145.52 116.41 143.88 115.95 141.68 115.87 139.63"/>
          <polygon class="cls-14" points="114.17 138.59 116.41 137.22 116.86 139.13 116.81 141.48 117.33 143.41 117.33 145.52 116.04 146.14 114.08 145.26 113.49 142.13 114.17 138.59"/>
        </g>
        <g>
          <polygon class="cls-1" points="108.6 101.37 108.17 101.13 107.57 101.47 107.15 102.21 107.15 102.9 107.57 103.15 107.78 103.13 108.67 101.58 108.6 101.37"/>
          <polygon class="cls-9" points="108.67 101.58 108.3 101.37 107.78 101.67 107.41 102.31 107.41 102.91 107.78 103.13 108.3 102.82 108.67 102.18 108.67 101.58"/>
        </g>
      </g>
      <g>
        <polygon class="cls-6" points="323.42 259.96 313.44 259.96 306.39 264.03 306.39 269.79 313.44 273.86 323.41 273.86 330.46 269.79 330.46 264.03 323.42 259.96"/>
        <g>
          <polygon class="cls-9" points="309.67 264.66 307.12 265.35 306.39 267.46 307.28 266.79 306.93 268.62 308.19 267.7 308.26 268.98 309.11 267.95 312.53 266.48 314.46 265.4 314.46 263.83 313.08 263.12 311.82 263.12 309.67 264.66"/>
          <polygon class="cls-7" points="312.45 257.49 313.05 254.83 315.6 256.22 315.79 259.52 315.23 263.42 314.06 263.98 313.05 262.17 312.54 259.75 312.45 257.49"/>
          <polygon class="cls-10" points="310.58 256.33 313.05 254.83 313.54 256.93 313.5 259.53 314.06 261.65 314.06 263.98 312.64 264.66 310.49 263.69 309.83 260.25 310.58 256.33"/>
        </g>
        <polygon class="cls-7" points="305.63 219.47 308.09 215.95 310.96 214.74 314.11 215.39 317.18 218.73 318.94 222.44 314.95 224.57 310.5 225.82 306.72 225.64 304.84 224.25 305.63 219.47"/>
        <polygon class="cls-18" points="303.11 225.65 300.76 227.59 306.72 225.64 307.02 223.65 303.11 225.65"/>
        <polygon class="cls-7" points="305.07 222.86 300.76 227.59 305.79 224.97 307.81 224.79 307.88 223.39 306.63 221.98 305.07 222.86"/>
        <polygon class="cls-7" points="324.8 256.41 328 260.49 332.26 262.45 330.25 265.17 325.87 266.99 320.66 267.73 324.8 256.41"/>
        <polygon class="cls-9" points="324.3 267.21 323.99 264.25 323.01 265.73 323.56 267.32 324.3 267.21"/>
        <polygon class="cls-7" points="318.94 222.44 322.48 229.86 325.1 239.97 325.76 250.95 325.29 259.41 323.98 263.98 319.49 268.34 313.93 255.87 311.19 235.28 307.41 228.12 307.51 225.64 311.98 221.42 318.94 222.44"/>
        <polygon class="cls-14" points="315.65 222.14 317.5 222.23 318.15 223.37 317.73 225.01 315.53 226.9 314.69 228.75 314.94 232.05 317.55 239.64 318.78 247.62 319.49 255.04 321.26 259.57 317.87 268.56 311.92 269.36 306.42 264.82 303.34 257.91 302.59 248.78 303.36 238.06 305.29 230.93 307.02 227.56 307.51 225.64 307.72 227.03 309.39 227.96 312.21 227.45 313.44 225.82 314 223.62 315.65 222.14"/>
        <polygon class="cls-23" points="318.73 268.45 317.87 268.56 317.15 264.82 318.78 261.07 320.07 266.56 318.73 268.45"/>
        <polygon class="cls-9" points="318.62 236.12 319.56 240.65 319.67 246.06 320.94 250.92 323.2 253.74 325.58 254.11 325.59 253.92 323.91 252.23 322.32 248.73 321.26 245.22 322 239.9 319.62 233.26 318.62 236.12"/>
        <polygon class="cls-7" points="326.67 250.68 326.11 246.03 326.39 240.77 325.09 235.92 323.5 233.24 321.26 232.45 319.62 233.26 319.17 235.74 320.43 240.31 320.47 245.42 321.85 250.68 323.87 253.52 328.22 254.54 326.67 250.68"/>
        <g>
          <polygon class="cls-9" points="317.87 269.4 315.32 270.08 314.59 272.19 315.48 271.52 315.13 273.35 316.39 272.43 316.46 273.71 317.31 272.69 320.73 271.22 322.66 270.13 322.66 268.56 321.28 267.86 320.02 267.86 317.87 269.4"/>
          <polygon class="cls-7" points="320.65 262.22 321.26 259.57 323.81 260.96 323.99 264.25 323.44 268.16 322.26 268.72 321.26 266.91 320.75 264.48 320.65 262.22"/>
          <polygon class="cls-14" points="318.78 261.07 321.26 259.57 321.74 261.67 321.7 264.26 322.26 266.39 322.26 268.72 320.84 269.4 318.69 268.43 318.03 264.98 318.78 261.07"/>
        </g>
        <g>
          <polygon class="cls-1" points="312.63 220.04 312.17 219.78 311.51 220.16 311.04 220.97 311.04 221.73 311.51 222 311.73 221.98 312.72 220.28 312.63 220.04"/>
          <polygon class="cls-9" points="312.72 220.28 312.31 220.04 311.73 220.37 311.33 221.08 311.33 221.74 311.73 221.98 312.31 221.65 312.72 220.94 312.72 220.28"/>
        </g>
      </g>
      <g>
        <polygon class="cls-6" points="244.8 194.81 238.36 194.81 233.81 197.43 233.81 201.15 238.36 203.78 244.8 203.78 249.35 201.15 249.35 197.43 244.8 194.81"/>
        <g>
          <polygon class="cls-9" points="235.93 197.84 234.28 198.29 233.81 199.65 234.39 199.22 234.16 200.4 234.98 199.8 235.02 200.63 235.57 199.97 237.78 199.02 239.02 198.32 239.02 197.31 238.13 196.85 237.32 196.85 235.93 197.84"/>
          <polygon class="cls-7" points="237.73 193.21 238.12 191.5 239.76 192.4 239.88 194.52 239.52 197.05 238.77 197.41 238.12 196.24 237.79 194.67 237.73 193.21"/>
          <polygon class="cls-10" points="236.52 192.47 238.12 191.5 238.43 192.85 238.4 194.53 238.77 195.9 238.77 197.41 237.85 197.84 236.46 197.22 236.04 194.99 236.52 192.47"/>
        </g>
        <polygon class="cls-7" points="233.32 168.67 234.91 166.4 236.77 165.62 238.8 166.04 240.78 168.19 241.91 170.59 239.34 171.97 236.47 172.77 234.03 172.65 232.81 171.76 233.32 168.67"/>
        <polygon class="cls-18" points="231.7 172.66 230.18 173.91 234.03 172.65 234.22 171.37 231.7 172.66"/>
        <polygon class="cls-7" points="232.96 170.86 230.18 173.91 233.43 172.22 234.73 172.1 234.78 171.2 233.97 170.29 232.96 170.86"/>
        <polygon class="cls-7" points="245.7 192.51 247.76 195.15 250.52 196.42 249.22 198.17 246.39 199.35 243.02 199.82 245.7 192.51"/>
        <polygon class="cls-9" points="245.37 199.49 245.18 197.58 244.54 198.53 244.89 199.56 245.37 199.49"/>
        <polygon class="cls-7" points="241.91 170.59 244.2 175.38 245.89 181.9 246.32 188.99 246.01 194.45 245.17 197.41 242.27 200.22 238.68 192.17 236.91 178.88 234.47 174.26 234.54 172.66 237.42 169.93 241.91 170.59"/>
        <polygon class="cls-14" points="239.79 170.39 240.99 170.45 241.41 171.19 241.13 172.25 239.71 173.47 239.17 174.66 239.33 176.79 241.02 181.69 241.81 186.84 242.27 191.63 243.41 194.56 241.22 200.36 237.39 200.87 233.83 197.94 231.84 193.49 231.36 187.59 231.86 180.68 233.1 176.07 234.22 173.9 234.54 172.66 234.67 173.55 235.75 174.15 237.57 173.82 238.37 172.77 238.73 171.35 239.79 170.39"/>
        <polygon class="cls-23" points="241.78 200.29 241.22 200.36 240.76 197.94 241.81 195.53 242.64 199.07 241.78 200.29"/>
        <polygon class="cls-9" points="241.71 179.42 242.32 182.34 242.39 185.83 243.21 188.97 244.67 190.79 246.2 191.04 246.21 190.91 245.12 189.82 244.1 187.56 243.41 185.29 243.89 181.86 242.36 177.58 241.71 179.42"/>
        <polygon class="cls-7" points="246.9 188.82 246.54 185.82 246.72 182.42 245.88 179.29 244.86 177.56 243.41 177.05 242.36 177.58 242.06 179.17 242.88 182.12 242.9 185.42 243.79 188.82 245.1 190.65 247.9 191.31 246.9 188.82"/>
        <g>
          <polygon class="cls-9" points="241.22 200.9 239.58 201.34 239.11 202.7 239.68 202.27 239.46 203.45 240.27 202.86 240.32 203.68 240.86 203.02 243.07 202.08 244.32 201.38 244.32 200.36 243.42 199.91 242.61 199.91 241.22 200.9"/>
          <polygon class="cls-7" points="243.02 196.27 243.41 194.56 245.06 195.45 245.18 197.58 244.82 200.1 244.06 200.46 243.41 199.29 243.08 197.73 243.02 196.27"/>
          <polygon class="cls-14" points="241.81 195.53 243.41 194.56 243.72 195.91 243.69 197.59 244.06 198.96 244.06 200.46 243.14 200.9 241.75 200.27 241.33 198.05 241.81 195.53"/>
        </g>
        <g>
          <polygon class="cls-1" points="237.85 169.04 237.54 168.87 237.12 169.12 236.81 169.64 236.81 170.13 237.12 170.31 237.26 170.29 237.9 169.19 237.85 169.04"/>
          <polygon class="cls-9" points="237.9 169.19 237.64 169.04 237.26 169.26 237 169.71 237 170.14 237.26 170.29 237.64 170.08 237.9 169.62 237.9 169.19"/>
        </g>
      </g>
      <g>
        <polygon class="cls-6" points="136.77 145.98 128.53 145.98 122.7 149.34 122.71 154.1 128.53 157.46 136.77 157.46 142.59 154.09 142.59 149.34 136.77 145.98"/>
        <g>
          <polygon class="cls-9" points="125.42 149.86 123.31 150.43 122.71 152.17 123.44 151.62 123.16 153.13 124.19 152.37 124.25 153.43 124.95 152.58 127.78 151.37 129.37 150.47 129.37 149.17 128.23 148.59 127.19 148.59 125.42 149.86"/>
          <polygon class="cls-7" points="127.71 143.94 128.21 141.74 130.32 142.89 130.47 145.61 130.01 148.84 129.05 149.3 128.21 147.81 127.79 145.8 127.71 143.94"/>
          <polygon class="cls-10" points="126.17 142.98 128.21 141.74 128.61 143.48 128.58 145.62 129.05 147.38 129.05 149.3 127.87 149.86 126.09 149.06 125.55 146.22 126.17 142.98"/>
        </g>
        <polygon class="cls-7" points="122.08 112.53 124.11 109.62 126.48 108.62 129.09 109.16 131.62 111.92 133.07 114.98 129.78 116.74 126.1 117.78 122.98 117.62 121.43 116.47 122.08 112.53"/>
        <polygon class="cls-18" points="120 117.63 118.05 119.24 122.98 117.62 123.23 115.98 120 117.63"/>
        <polygon class="cls-7" points="121.62 115.32 118.05 119.24 122.21 117.07 123.88 116.92 123.94 115.77 122.9 114.6 121.62 115.32"/>
        <polygon class="cls-7" points="137.92 143.04 140.56 146.41 144.08 148.04 142.42 150.29 138.8 151.78 134.49 152.4 137.92 143.04"/>
        <polygon class="cls-9" points="137.5 151.97 137.25 149.52 136.43 150.75 136.89 152.06 137.5 151.97"/>
        <polygon class="cls-7" points="133.07 114.98 136 121.11 138.17 129.46 138.71 138.54 138.32 145.52 137.24 149.3 133.53 152.91 128.94 142.6 126.67 125.59 123.55 119.67 123.64 117.63 127.33 114.14 133.07 114.98"/>
        <polygon class="cls-14" points="130.35 114.73 131.88 114.81 132.42 115.75 132.08 117.11 130.26 118.67 129.57 120.19 129.77 122.92 131.92 129.19 132.94 135.78 133.53 141.91 134.99 145.65 132.19 153.08 127.28 153.74 122.73 149.99 120.19 144.29 119.57 136.74 120.2 127.89 121.8 122 123.23 119.21 123.64 117.63 123.8 118.77 125.18 119.54 127.52 119.12 128.53 117.78 128.99 115.96 130.35 114.73"/>
        <polygon class="cls-23" points="132.9 152.99 132.19 153.08 131.6 149.99 132.94 146.9 134.01 151.43 132.9 152.99"/>
        <polygon class="cls-9" points="132.81 126.28 133.59 130.02 133.68 134.49 134.73 138.51 136.6 140.84 138.56 141.15 138.57 140.99 137.18 139.59 135.87 136.7 134.99 133.8 135.6 129.4 133.64 123.92 132.81 126.28"/>
        <polygon class="cls-7" points="139.46 138.31 139 134.47 139.23 130.12 138.15 126.12 136.85 123.91 134.99 123.25 133.64 123.92 133.26 125.97 134.31 129.74 134.34 133.96 135.48 138.31 137.15 140.66 140.74 141.5 139.46 138.31"/>
        <g>
          <polygon class="cls-9" points="132.19 153.77 130.08 154.34 129.48 156.08 130.22 155.53 129.93 157.04 130.97 156.28 131.03 157.34 131.73 156.49 134.56 155.28 136.15 154.38 136.15 153.08 135.01 152.5 133.97 152.5 132.19 153.77"/>
          <polygon class="cls-7" points="134.49 147.85 134.99 145.65 137.09 146.8 137.25 149.52 136.79 152.75 135.82 153.21 134.99 151.72 134.57 149.71 134.49 147.85"/>
          <polygon class="cls-14" points="132.94 146.9 134.99 145.65 135.39 147.39 135.35 149.53 135.82 151.29 135.82 153.21 134.64 153.77 132.87 152.97 132.33 150.13 132.94 146.9"/>
        </g>
        <g>
          <polygon class="cls-1" points="127.87 113 127.48 112.78 126.93 113.09 126.55 113.76 126.55 114.4 126.93 114.62 127.12 114.6 127.93 113.19 127.87 113"/>
          <polygon class="cls-9" points="127.93 113.19 127.6 113 127.12 113.27 126.78 113.86 126.78 114.41 127.12 114.6 127.6 114.33 127.93 113.74 127.93 113.19"/>
        </g>
      </g>
      <g>
        <polygon class="cls-6" points="169.72 124.98 177.96 124.98 183.79 128.35 183.78 133.1 177.96 136.47 169.72 136.47 163.9 133.1 163.9 128.35 169.72 124.98"/>
        <g>
          <polygon class="cls-9" points="181.08 128.87 183.18 129.44 183.79 131.18 183.05 130.63 183.34 132.14 182.3 131.38 182.24 132.43 181.54 131.59 178.71 130.38 177.12 129.48 177.12 128.18 178.26 127.6 179.3 127.6 181.08 128.87"/>
          <polygon class="cls-7" points="178.78 122.94 178.28 120.75 176.17 121.9 176.02 124.62 176.48 127.85 177.45 128.31 178.28 126.81 178.7 124.81 178.78 122.94"/>
          <polygon class="cls-10" points="180.32 121.99 178.28 120.75 177.88 122.49 177.92 124.63 177.45 126.38 177.45 128.31 178.62 128.87 180.4 128.07 180.94 125.22 180.32 121.99"/>
        </g>
        <polygon class="cls-7" points="184.41 91.54 182.38 88.62 180.01 87.63 177.4 88.17 174.87 90.92 173.42 93.99 176.71 95.75 180.39 96.79 183.51 96.63 185.06 95.48 184.41 91.54"/>
        <polygon class="cls-18" points="186.49 96.64 188.44 98.24 183.51 96.63 183.26 94.98 186.49 96.64"/>
        <polygon class="cls-7" points="184.87 94.33 188.44 98.24 184.28 96.08 182.61 95.93 182.56 94.77 183.59 93.61 184.87 94.33"/>
        <polygon class="cls-7" points="168.57 122.05 165.93 125.42 162.41 127.04 164.07 129.29 167.69 130.79 172 131.4 168.57 122.05"/>
        <polygon class="cls-9" points="168.99 130.98 169.24 128.53 170.06 129.75 169.6 131.06 168.99 130.98"/>
        <polygon class="cls-7" points="173.42 93.99 170.49 100.12 168.32 108.47 167.78 117.54 168.17 124.53 169.26 128.31 172.96 131.91 177.56 121.61 179.82 104.6 182.94 98.68 182.86 96.63 179.17 93.15 173.42 93.99"/>
        <polygon class="cls-14" points="176.14 93.74 174.61 93.81 174.07 94.75 174.42 96.11 176.23 97.68 176.92 99.2 176.72 101.93 174.57 108.2 173.55 114.79 172.96 120.92 171.5 124.66 174.3 132.09 179.21 132.75 183.76 129 186.31 123.3 186.92 115.75 186.29 106.9 184.69 101 183.26 98.22 182.86 96.63 182.69 97.78 181.31 98.55 178.97 98.13 177.96 96.79 177.5 94.97 176.14 93.74"/>
        <polygon class="cls-23" points="173.59 132 174.3 132.09 174.89 129 173.55 125.9 172.49 130.44 173.59 132"/>
        <polygon class="cls-9" points="173.68 105.29 172.9 109.03 172.81 113.5 171.77 117.52 169.89 119.84 167.93 120.16 167.92 120 169.31 118.6 170.62 115.71 171.5 112.81 170.89 108.41 172.85 102.93 173.68 105.29"/>
        <polygon class="cls-7" points="167.03 117.32 167.49 113.48 167.26 109.13 168.34 105.12 169.65 102.91 171.5 102.26 172.85 102.93 173.23 104.98 172.18 108.75 172.15 112.97 171.02 117.32 169.35 119.67 165.75 120.51 167.03 117.32"/>
        <g>
          <polygon class="cls-9" points="174.3 132.78 176.41 133.35 177.01 135.09 176.27 134.54 176.56 136.05 175.52 135.29 175.46 136.35 174.76 135.5 171.94 134.29 170.34 133.39 170.34 132.09 171.49 131.51 172.52 131.51 174.3 132.78"/>
          <polygon class="cls-7" points="172 126.86 171.5 124.66 169.4 125.81 169.24 128.53 169.7 131.76 170.67 132.22 171.5 130.73 171.93 128.72 172 126.86"/>
          <polygon class="cls-14" points="173.55 125.9 171.5 124.66 171.1 126.4 171.14 128.54 170.67 130.3 170.67 132.22 171.85 132.78 173.63 131.98 174.17 129.14 173.55 125.9"/>
        </g>
        <g>
          <polygon class="cls-1" points="178.63 92.01 179.01 91.79 179.56 92.1 179.95 92.77 179.95 93.4 179.56 93.63 179.37 93.61 178.56 92.2 178.63 92.01"/>
          <polygon class="cls-9" points="178.56 92.2 178.89 92.01 179.37 92.28 179.71 92.87 179.71 93.41 179.37 93.61 178.89 93.33 178.56 92.75 178.56 92.2"/>
        </g>
      </g>
      <g>
        <polygon class="cls-6" points="175.24 191.76 183.48 191.76 189.31 195.12 189.3 199.88 183.48 203.24 175.24 203.24 169.42 199.88 169.42 195.12 175.24 191.76"/>
        <g>
          <polygon class="cls-9" points="186.59 195.64 188.7 196.21 189.3 197.95 188.57 197.4 188.85 198.91 187.82 198.15 187.76 199.21 187.06 198.36 184.23 197.15 182.64 196.25 182.64 194.95 183.78 194.37 184.82 194.37 186.59 195.64"/>
          <polygon class="cls-7" points="184.3 189.72 183.8 187.52 181.69 188.67 181.54 191.39 182 194.62 182.96 195.08 183.8 193.59 184.22 191.58 184.3 189.72"/>
          <polygon class="cls-10" points="185.84 188.77 183.8 187.52 183.4 189.26 183.43 191.4 182.96 193.16 182.96 195.08 184.14 195.64 185.92 194.84 186.46 192 185.84 188.77"/>
        </g>
        <polygon class="cls-7" points="189.93 158.31 187.9 155.4 185.53 154.4 182.92 154.94 180.39 157.7 178.94 160.76 182.23 162.52 185.91 163.56 189.03 163.4 190.58 162.26 189.93 158.31"/>
        <polygon class="cls-18" points="192.01 163.41 193.96 165.02 189.03 163.4 188.78 161.76 192.01 163.41"/>
        <polygon class="cls-7" points="190.39 161.11 193.96 165.02 189.8 162.85 188.13 162.7 188.07 161.55 189.11 160.38 190.39 161.11"/>
        <polygon class="cls-7" points="174.09 188.82 171.45 192.19 167.93 193.82 169.59 196.07 173.21 197.57 177.52 198.18 174.09 188.82"/>
        <polygon class="cls-9" points="174.51 197.75 174.76 195.3 175.58 196.53 175.12 197.84 174.51 197.75"/>
        <polygon class="cls-7" points="178.94 160.76 176.01 166.89 173.84 175.24 173.3 184.32 173.69 191.3 174.77 195.08 178.48 198.69 183.07 188.38 185.33 171.37 188.46 165.45 188.37 163.41 184.68 159.92 178.94 160.76"/>
        <polygon class="cls-14" points="181.66 160.51 180.12 160.59 179.59 161.53 179.93 162.89 181.75 164.45 182.44 165.97 182.24 168.7 180.09 174.97 179.07 181.56 178.48 187.69 177.02 191.43 179.82 198.87 184.73 199.52 189.28 195.77 191.82 190.07 192.44 182.52 191.81 173.67 190.21 167.78 188.78 164.99 188.37 163.41 188.21 164.55 186.83 165.32 184.49 164.9 183.48 163.56 183.02 161.74 181.66 160.51"/>
        <polygon class="cls-23" points="179.11 198.77 179.82 198.87 180.41 195.77 179.07 192.68 178 197.21 179.11 198.77"/>
        <polygon class="cls-9" points="179.2 172.06 178.42 175.81 178.33 180.27 177.28 184.29 175.41 186.62 173.45 186.93 173.44 186.77 174.83 185.37 176.14 182.48 177.02 179.58 176.41 175.18 178.37 169.7 179.2 172.06"/>
        <polygon class="cls-7" points="172.55 184.09 173.01 180.25 172.78 175.91 173.86 171.9 175.16 169.69 177.02 169.04 178.37 169.7 178.75 171.75 177.7 175.53 177.67 179.74 176.53 184.09 174.86 186.44 171.27 187.28 172.55 184.09"/>
        <g>
          <polygon class="cls-9" points="179.82 199.56 181.93 200.12 182.53 201.87 181.79 201.31 182.08 202.83 181.04 202.06 180.98 203.12 180.28 202.27 177.45 201.06 175.86 200.16 175.86 198.87 177 198.29 178.04 198.29 179.82 199.56"/>
          <polygon class="cls-7" points="177.52 193.63 177.02 191.43 174.91 192.58 174.76 195.3 175.22 198.53 176.19 198.99 177.02 197.5 177.44 195.5 177.52 193.63"/>
          <polygon class="cls-14" points="179.07 192.68 177.02 191.43 176.62 193.17 176.66 195.32 176.19 197.07 176.19 198.99 177.37 199.56 179.14 198.76 179.68 195.91 179.07 192.68"/>
        </g>
        <g>
          <polygon class="cls-1" points="184.14 158.78 184.53 158.56 185.08 158.88 185.46 159.55 185.46 160.18 185.08 160.4 184.89 160.38 184.08 158.98 184.14 158.78"/>
          <polygon class="cls-9" points="184.08 158.98 184.41 158.78 184.89 159.06 185.23 159.64 185.23 160.19 184.89 160.38 184.41 160.11 184.08 159.52 184.08 158.98"/>
        </g>
      </g>
      <g>
        <polygon class="cls-6" points="147.61 200.35 155.08 200.35 160.35 203.4 160.35 207.7 155.08 210.75 147.62 210.75 142.34 207.7 142.34 203.4 147.61 200.35"/>
        <g>
          <polygon class="cls-9" points="157.9 203.87 159.8 204.38 160.35 205.96 159.68 205.46 159.94 206.83 159 206.14 158.95 207.1 158.31 206.33 155.75 205.23 154.31 204.42 154.31 203.25 155.35 202.72 156.29 202.72 157.9 203.87"/>
          <polygon class="cls-7" points="155.82 198.5 155.36 196.52 153.46 197.56 153.32 200.02 153.73 202.94 154.61 203.36 155.36 202.01 155.75 200.19 155.82 198.5"/>
          <polygon class="cls-10" points="157.22 197.64 155.36 196.52 155 198.09 155.03 200.03 154.61 201.62 154.61 203.36 155.68 203.87 157.29 203.15 157.78 200.57 157.22 197.64"/>
        </g>
        <polygon class="cls-7" points="160.92 170.06 159.08 167.43 156.93 166.53 154.57 167.01 152.28 169.51 150.96 172.28 153.95 173.88 157.28 174.82 160.1 174.68 161.51 173.64 160.92 170.06"/>
        <polygon class="cls-18" points="162.8 174.69 164.56 176.14 160.1 174.68 159.88 173.19 162.8 174.69"/>
        <polygon class="cls-7" points="161.34 172.6 164.56 176.14 160.8 174.17 159.29 174.04 159.24 172.99 160.17 171.94 161.34 172.6"/>
        <polygon class="cls-7" points="146.58 197.69 144.18 200.75 140.99 202.22 142.5 204.25 145.77 205.61 149.68 206.16 146.58 197.69"/>
        <polygon class="cls-9" points="146.95 205.78 147.18 203.56 147.92 204.67 147.51 205.86 146.95 205.78"/>
        <polygon class="cls-7" points="150.96 172.28 148.31 177.83 146.35 185.4 145.86 193.61 146.21 199.94 147.19 203.36 150.55 206.63 154.71 197.29 156.76 181.89 159.59 176.53 159.51 174.68 156.17 171.52 150.96 172.28"/>
        <polygon class="cls-14" points="153.43 172.06 152.04 172.13 151.55 172.98 151.87 174.21 153.51 175.62 154.14 177 153.96 179.47 152 185.15 151.08 191.12 150.55 196.67 149.23 200.06 151.76 206.79 156.21 207.38 160.33 203.99 162.63 198.82 163.19 191.99 162.62 183.97 161.17 178.64 159.88 176.12 159.51 174.68 159.36 175.72 158.11 176.41 155.99 176.03 155.07 174.82 154.66 173.17 153.43 172.06"/>
        <polygon class="cls-23" points="151.12 206.7 151.76 206.79 152.3 203.99 151.08 201.18 150.12 205.29 151.12 206.7"/>
        <polygon class="cls-9" points="151.2 182.52 150.5 185.91 150.42 189.95 149.47 193.59 147.77 195.7 145.99 195.98 145.98 195.84 147.25 194.57 148.43 191.95 149.23 189.33 148.67 185.34 150.45 180.38 151.2 182.52"/>
        <polygon class="cls-7" points="145.18 193.41 145.6 189.93 145.39 186 146.36 182.37 147.55 180.37 149.23 179.78 150.45 180.38 150.79 182.23 149.85 185.65 149.82 189.47 148.79 193.41 147.28 195.54 144.02 196.29 145.18 193.41"/>
        <g>
          <polygon class="cls-9" points="151.76 207.41 153.67 207.93 154.22 209.5 153.55 209 153.81 210.37 152.87 209.68 152.81 210.64 152.18 209.87 149.62 208.78 148.18 207.96 148.18 206.79 149.21 206.26 150.15 206.26 151.76 207.41"/>
          <polygon class="cls-7" points="149.68 202.05 149.23 200.06 147.32 201.1 147.18 203.56 147.6 206.49 148.47 206.9 149.23 205.55 149.61 203.74 149.68 202.05"/>
          <polygon class="cls-14" points="151.08 201.18 149.23 200.06 148.86 201.63 148.9 203.57 148.47 205.16 148.47 206.9 149.54 207.41 151.15 206.69 151.64 204.11 151.08 201.18"/>
        </g>
        <g>
          <polygon class="cls-1" points="155.68 170.49 156.03 170.29 156.52 170.58 156.87 171.18 156.87 171.75 156.52 171.96 156.35 171.94 155.62 170.67 155.68 170.49"/>
          <polygon class="cls-9" points="155.62 170.67 155.92 170.49 156.35 170.74 156.66 171.27 156.66 171.76 156.35 171.94 155.92 171.69 155.62 171.16 155.62 170.67"/>
        </g>
      </g>
      <g>
        <polygon class="cls-6" points="100.3 255.26 108.54 255.26 114.37 258.62 114.37 263.38 108.54 266.74 100.3 266.74 94.48 263.37 94.48 258.62 100.3 255.26"/>
        <g>
          <polygon class="cls-9" points="111.66 259.14 113.76 259.71 114.37 261.45 113.63 260.9 113.92 262.41 112.88 261.65 112.82 262.71 112.12 261.86 109.29 260.65 107.7 259.75 107.7 258.45 108.84 257.87 109.88 257.87 111.66 259.14"/>
          <polygon class="cls-7" points="109.36 253.22 108.86 251.02 106.75 252.17 106.6 254.89 107.06 258.12 108.03 258.58 108.86 257.09 109.28 255.08 109.36 253.22"/>
          <polygon class="cls-10" points="110.91 252.26 108.86 251.02 108.46 252.76 108.5 254.9 108.03 256.66 108.03 258.58 109.21 259.14 110.98 258.34 111.52 255.5 110.91 252.26"/>
        </g>
        <polygon class="cls-7" points="115 221.81 112.96 218.9 110.59 217.9 107.98 218.44 105.46 221.2 104 224.26 107.29 226.02 110.97 227.06 114.09 226.9 115.65 225.75 115 221.81"/>
        <polygon class="cls-18" points="117.07 226.91 119.02 228.52 114.09 226.9 113.85 225.26 117.07 226.91"/>
        <polygon class="cls-7" points="115.46 224.6 119.02 228.52 114.86 226.35 113.19 226.2 113.14 225.04 114.17 223.88 115.46 224.6"/>
        <polygon class="cls-7" points="99.15 252.32 96.51 255.69 92.99 257.32 94.65 259.57 98.27 261.06 102.58 261.67 99.15 252.32"/>
        <polygon class="cls-9" points="99.57 261.25 99.82 258.8 100.64 260.03 100.19 261.34 99.57 261.25"/>
        <polygon class="cls-7" points="104 224.26 101.07 230.39 98.91 238.74 98.37 247.82 98.75 254.8 99.84 258.58 103.54 262.18 108.14 251.88 110.4 234.87 113.52 228.95 113.44 226.91 109.75 223.42 104 224.26"/>
        <polygon class="cls-14" points="106.72 224.01 105.19 224.09 104.65 225.03 105 226.39 106.82 227.95 107.51 229.47 107.3 232.2 105.15 238.47 104.13 245.06 103.54 251.19 102.09 254.93 104.88 262.36 109.79 263.02 114.34 259.27 116.89 253.57 117.5 246.02 116.87 237.17 115.28 231.28 113.85 228.49 113.44 226.91 113.27 228.05 111.89 228.82 109.56 228.4 108.54 227.06 108.08 225.24 106.72 224.01"/>
        <polygon class="cls-23" points="104.17 262.27 104.88 262.36 105.48 259.27 104.13 256.17 103.07 260.71 104.17 262.27"/>
        <polygon class="cls-9" points="104.26 235.56 103.48 239.3 103.4 243.77 102.35 247.79 100.48 250.12 98.51 250.43 98.5 250.27 99.89 248.87 101.2 245.98 102.09 243.08 101.47 238.68 103.43 233.2 104.26 235.56"/>
        <polygon class="cls-7" points="97.61 247.59 98.07 243.75 97.84 239.4 98.92 235.4 100.23 233.19 102.09 232.53 103.43 233.2 103.81 235.25 102.77 239.02 102.73 243.24 101.6 247.59 99.93 249.94 96.33 250.78 97.61 247.59"/>
        <g>
          <polygon class="cls-9" points="104.88 263.05 106.99 263.62 107.59 265.36 106.85 264.81 107.14 266.32 106.1 265.56 106.04 266.62 105.34 265.77 102.52 264.56 100.93 263.66 100.93 262.36 102.07 261.78 103.1 261.78 104.88 263.05"/>
          <polygon class="cls-7" points="102.58 257.13 102.09 254.93 99.98 256.08 99.82 258.8 100.28 262.03 101.25 262.49 102.09 261 102.51 258.99 102.58 257.13"/>
          <polygon class="cls-14" points="104.13 256.17 102.09 254.93 101.68 256.67 101.72 258.81 101.25 260.57 101.25 262.49 102.43 263.05 104.21 262.25 104.75 259.41 104.13 256.17"/>
        </g>
        <g>
          <polygon class="cls-1" points="109.21 222.28 109.59 222.06 110.14 222.37 110.53 223.04 110.53 223.67 110.14 223.9 109.95 223.88 109.14 222.47 109.21 222.28"/>
          <polygon class="cls-9" points="109.14 222.47 109.48 222.28 109.95 222.55 110.29 223.14 110.29 223.69 109.95 223.88 109.48 223.61 109.14 223.02 109.14 222.47"/>
        </g>
      </g>
      <g>
        <polygon class="cls-6" points="102.81 155.37 110.31 155.37 115.61 158.42 115.6 162.75 110.31 165.81 102.82 165.81 97.52 162.75 97.52 158.42 102.81 155.37"/>
        <g>
          <polygon class="cls-9" points="113.14 158.9 115.06 159.42 115.6 161 114.93 160.5 115.2 161.87 114.25 161.18 114.2 162.14 113.56 161.37 110.99 160.27 109.54 159.45 109.54 158.27 110.58 157.75 111.52 157.75 113.14 158.9"/>
          <polygon class="cls-7" points="111.05 153.51 110.6 151.52 108.68 152.56 108.54 155.03 108.96 157.97 109.84 158.39 110.6 157.03 110.98 155.21 111.05 153.51"/>
          <polygon class="cls-10" points="112.46 152.65 110.6 151.52 110.23 153.09 110.27 155.04 109.84 156.64 109.84 158.39 110.91 158.9 112.53 158.17 113.02 155.58 112.46 152.65"/>
        </g>
        <polygon class="cls-7" points="116.17 124.95 114.33 122.31 112.17 121.4 109.8 121.89 107.5 124.4 106.18 127.18 109.17 128.79 112.52 129.73 115.36 129.59 116.77 128.54 116.17 124.95"/>
        <polygon class="cls-18" points="118.06 129.6 119.83 131.05 115.36 129.59 115.13 128.09 118.06 129.6"/>
        <polygon class="cls-7" points="116.59 127.5 119.83 131.05 116.05 129.08 114.54 128.95 114.49 127.9 115.43 126.84 116.59 127.5"/>
        <polygon class="cls-7" points="101.77 152.7 99.37 155.76 96.17 157.24 97.68 159.28 100.97 160.65 104.89 161.2 101.77 152.7"/>
        <polygon class="cls-9" points="102.15 160.81 102.38 158.59 103.12 159.7 102.71 160.89 102.15 160.81"/>
        <polygon class="cls-7" points="106.18 127.18 103.51 132.76 101.55 140.35 101.06 148.6 101.41 154.95 102.39 158.39 105.76 161.67 109.94 152.3 112 136.83 114.84 131.45 114.76 129.59 111.4 126.42 106.18 127.18"/>
        <polygon class="cls-14" points="108.65 126.96 107.26 127.03 106.77 127.88 107.08 129.12 108.74 130.54 109.37 131.92 109.18 134.4 107.22 140.11 106.3 146.1 105.76 151.67 104.44 155.07 106.98 161.83 111.45 162.43 115.58 159.02 117.9 153.83 118.46 146.97 117.88 138.92 116.43 133.56 115.13 131.03 114.76 129.59 114.61 130.63 113.35 131.33 111.23 130.95 110.31 129.73 109.89 128.07 108.65 126.96"/>
        <polygon class="cls-23" points="106.34 161.74 106.98 161.83 107.52 159.02 106.3 156.2 105.33 160.33 106.34 161.74"/>
        <polygon class="cls-9" points="106.41 137.46 105.71 140.86 105.63 144.93 104.67 148.58 102.97 150.69 101.19 150.98 101.18 150.83 102.44 149.56 103.64 146.93 104.44 144.3 103.88 140.3 105.66 135.31 106.41 137.46"/>
        <polygon class="cls-7" points="100.37 148.4 100.79 144.91 100.58 140.95 101.56 137.31 102.75 135.3 104.44 134.71 105.66 135.31 106 137.18 105.06 140.61 105.03 144.44 103.99 148.4 102.48 150.53 99.21 151.29 100.37 148.4"/>
        <g>
          <polygon class="cls-9" points="106.98 162.46 108.9 162.97 109.44 164.56 108.77 164.05 109.03 165.43 108.09 164.74 108.04 165.7 107.4 164.93 104.83 163.82 103.38 163.01 103.38 161.83 104.42 161.3 105.36 161.3 106.98 162.46"/>
          <polygon class="cls-7" points="104.89 157.07 104.44 155.07 102.52 156.12 102.38 158.59 102.8 161.53 103.68 161.95 104.44 160.59 104.82 158.76 104.89 157.07"/>
          <polygon class="cls-14" points="106.3 156.2 104.44 155.07 104.07 156.65 104.11 158.6 103.68 160.2 103.68 161.95 104.75 162.46 106.37 161.73 106.86 159.14 106.3 156.2"/>
        </g>
        <g>
          <polygon class="cls-1" points="110.91 125.39 111.26 125.18 111.76 125.47 112.11 126.08 112.11 126.65 111.76 126.86 111.59 126.84 110.85 125.56 110.91 125.39"/>
          <polygon class="cls-9" points="110.85 125.56 111.16 125.38 111.59 125.63 111.89 126.16 111.89 126.66 111.59 126.84 111.16 126.59 110.85 126.06 110.85 125.56"/>
        </g>
      </g>
    </g>
  </g>
  <g>
    <g>
      <polygon class="cls-10" points="373.94 88.38 368.87 85.45 373.26 82.91 378.34 85.85 373.94 88.38"/>
      <polygon class="cls-16" points="373.95 85.45 373.95 88.39 368.87 85.45 365.29 87.52 365.29 93.38 368.87 99.59 391.27 112.51 394.84 110.44 394.84 104.59 391.27 98.38 386.19 95.44 386.19 92.52 382.6 86.32 377.53 83.39 373.95 85.45"/>
      <polygon class="cls-10" points="382.6 86.32 377.53 83.39 381.92 80.85 386.99 83.77 382.6 86.32"/>
      <polygon class="cls-10" points="391.27 98.38 386.19 95.44 390.58 92.91 395.65 95.84 391.27 98.38"/>
      <polygon class="cls-12" points="386.19 92.52 382.6 86.32 386.99 83.77 390.57 89.99 386.19 92.52"/>
      <polygon class="cls-12" points="394.84 104.59 391.27 98.38 395.65 95.84 399.23 102.05 394.84 104.59"/>
      <polygon class="cls-23" points="390.57 92.9 386.19 95.44 386.19 92.52 390.57 89.99 390.57 92.9"/>
      <polygon class="cls-23" points="399.23 107.91 394.84 110.44 394.84 104.59 399.23 102.05 399.23 107.91"/>
    </g>
    <g>
      <polygon class="cls-10" points="336.77 116.02 327.58 110.71 335.54 106.12 344.73 111.43 336.77 116.02"/>
      <polygon class="cls-16" points="336.79 110.72 336.79 116.02 327.58 110.71 321.1 114.47 321.1 125.08 327.58 136.33 368.16 159.76 374.64 156 374.64 145.39 368.16 134.14 358.96 128.82 358.96 123.52 352.47 112.28 343.27 106.97 336.79 110.72"/>
      <polygon class="cls-10" points="352.47 112.28 343.27 106.97 351.23 102.37 360.42 107.68 352.47 112.28"/>
      <polygon class="cls-10" points="368.16 134.14 358.96 128.82 366.92 124.24 376.11 129.54 368.16 134.14"/>
      <polygon class="cls-12" points="358.96 123.52 352.47 112.28 360.42 107.68 366.91 118.93 358.96 123.52"/>
      <rect class="cls-12" x="370.78" y="130.97" width="9.19" height="12.99" transform="translate(-18.5 205.76) rotate(-29.95)"/>
      <polygon class="cls-23" points="366.91 124.22 358.96 128.82 358.96 123.52 366.91 118.93 366.91 124.22"/>
      <polygon class="cls-23" points="382.6 151.41 374.64 156 374.64 145.39 382.6 140.8 382.6 151.41"/>
    </g>
    <g>
      <g>
        <polygon class="cls-22" points="327.41 80.14 331.03 78.05 335.3 80.52 331.65 84.38 327.41 80.14"/>
        <polygon class="cls-8" points="331.7 82.6 335.3 80.52 338.31 85.74 334.7 92.76 331.7 82.6"/>
        <polygon class="cls-3" points="334.71 87.81 338.31 85.74 338.32 90.67 334.7 92.76 334.71 87.81"/>
        <polygon class="cls-5" points="331.67 94.5 334.7 92.76 334.71 87.81 331.7 82.6 327.41 80.14 324.39 81.88 324.41 86.81 327.41 92.03 331.67 94.5"/>
      </g>
      <g>
        <polygon class="cls-22" points="307.55 78.18 311.18 76.08 315.44 78.56 311.79 82.41 307.55 78.18"/>
        <polygon class="cls-8" points="311.84 80.63 315.44 78.56 318.45 83.77 314.84 90.8 311.84 80.63"/>
        <polygon class="cls-3" points="314.85 85.84 318.45 83.77 318.46 88.7 314.84 90.8 314.85 85.84"/>
        <polygon class="cls-5" points="311.82 92.54 314.84 90.8 314.85 85.84 311.84 80.63 307.55 78.18 304.54 79.92 304.55 84.84 307.56 90.06 311.82 92.54"/>
      </g>
      <g>
        <polygon class="cls-22" points="287.7 57.21 291.32 55.12 295.59 57.59 291.94 61.45 287.7 57.21"/>
        <polygon class="cls-8" points="291.98 59.67 295.59 57.59 298.6 62.81 294.98 69.83 291.98 59.67"/>
        <polygon class="cls-3" points="295 64.89 298.6 62.81 298.61 67.74 294.98 69.83 295 64.89"/>
        <polygon class="cls-5" points="291.96 71.58 294.98 69.83 295 64.89 291.98 59.67 287.7 57.21 284.68 58.96 284.69 63.88 287.7 69.09 291.96 71.58"/>
      </g>
      <g>
        <polygon class="cls-22" points="279.47 29.54 283.1 27.45 287.36 29.93 283.72 33.78 279.47 29.54"/>
        <polygon class="cls-8" points="283.76 32 287.36 29.93 290.37 35.14 286.76 42.16 283.76 32"/>
        <polygon class="cls-3" points="286.77 37.21 290.37 35.14 290.38 40.07 286.76 42.16 286.77 37.21"/>
        <polygon class="cls-5" points="283.74 43.9 286.76 42.16 286.77 37.21 283.76 32 279.47 29.54 276.46 31.28 276.47 36.2 279.48 41.42 283.74 43.9"/>
      </g>
      <g>
        <polygon class="cls-22" points="287.7 11.36 291.32 9.27 295.59 11.74 291.94 15.6 287.7 11.36"/>
        <polygon class="cls-8" points="291.98 13.82 295.59 11.74 298.6 16.96 294.98 23.98 291.98 13.82"/>
        <polygon class="cls-3" points="295 19.03 298.6 16.96 298.61 21.89 294.98 23.98 295 19.03"/>
        <polygon class="cls-5" points="291.96 25.73 294.98 23.98 295 19.03 291.98 13.82 287.7 11.36 284.68 13.11 284.69 18.03 287.7 23.24 291.96 25.73"/>
      </g>
      <g>
        <polygon class="cls-22" points="300.48 32.24 311.63 25.79 324.76 33.4 313.54 45.28 300.48 32.24"/>
        <polygon class="cls-8" points="313.69 39.81 324.76 33.4 334.04 49.47 322.91 71.09 313.69 39.81"/>
        <polygon class="cls-3" points="322.95 55.85 334.04 49.47 334.06 64.64 322.91 71.09 322.95 55.85"/>
        <polygon class="cls-5" points="313.62 76.45 322.91 71.09 322.95 55.85 313.69 39.81 300.48 32.24 291.19 37.6 291.23 52.76 300.5 68.81 313.62 76.45"/>
      </g>
      <g>
        <polygon class="cls-22" points="307.55 13.33 311.18 11.24 315.44 13.71 311.79 17.57 307.55 13.33"/>
        <polygon class="cls-8" points="311.84 15.78 315.44 13.71 318.45 18.93 314.84 25.94 311.84 15.78"/>
        <polygon class="cls-3" points="314.85 21 318.45 18.93 318.46 23.86 314.84 25.94 314.85 21"/>
        <polygon class="cls-5" points="311.82 27.69 314.84 25.94 314.85 21 311.84 15.78 307.55 13.33 304.54 15.07 304.55 19.99 307.56 25.2 311.82 27.69"/>
      </g>
      <g>
        <polygon class="cls-22" points="327.41 34.29 331.03 32.19 335.3 34.67 331.65 38.52 327.41 34.29"/>
        <polygon class="cls-8" points="331.7 36.74 335.3 34.67 338.31 39.88 334.7 46.91 331.7 36.74"/>
        <polygon class="cls-3" points="334.71 41.96 338.31 39.88 338.32 44.82 334.7 46.91 334.71 41.96"/>
        <polygon class="cls-5" points="331.67 48.65 334.7 46.91 334.71 41.96 331.7 36.74 327.41 34.29 324.39 36.03 324.4 40.96 327.41 46.17 331.67 48.65"/>
      </g>
      <g>
        <polygon class="cls-22" points="335.63 61.96 339.25 59.87 343.52 62.34 339.88 66.2 335.63 61.96"/>
        <polygon class="cls-8" points="339.92 64.42 343.52 62.34 346.53 67.56 342.91 74.58 339.92 64.42"/>
        <polygon class="cls-3" points="342.93 69.63 346.53 67.56 346.54 72.49 342.91 74.58 342.93 69.63"/>
        <polygon class="cls-5" points="339.9 76.33 342.91 74.58 342.93 69.63 339.92 64.42 335.63 61.96 332.61 63.7 332.63 68.63 335.64 73.85 339.9 76.33"/>
      </g>
    </g>
    <g>
      <polygon class="cls-10" points="237.73 7.42 232.73 4.53 237.05 2.04 242.05 4.92 237.73 7.42"/>
      <polygon class="cls-16" points="237.73 4.53 237.73 7.42 232.73 4.53 229.2 6.57 229.2 12.35 232.73 18.46 254.79 31.2 258.31 29.15 258.31 23.39 254.79 17.27 249.79 14.38 249.79 11.49 246.26 5.39 241.26 2.5 237.73 4.53"/>
      <polygon class="cls-10" points="246.26 5.39 241.26 2.5 245.59 0 250.58 2.89 246.26 5.39"/>
      <polygon class="cls-10" points="254.79 17.27 249.79 14.38 254.12 11.89 259.11 14.77 254.79 17.27"/>
      <rect class="cls-12" x="247.69" y="3.66" width="4.99" height="7.06" transform="translate(29.92 126.05) rotate(-30)"/>
      <polygon class="cls-12" points="258.31 23.39 254.79 17.27 259.11 14.77 262.64 20.89 258.31 23.39"/>
      <polygon class="cls-23" points="254.11 11.88 249.79 14.38 249.79 11.49 254.11 9 254.11 11.88"/>
      <polygon class="cls-23" points="262.64 26.66 258.31 29.15 258.31 23.39 262.64 20.89 262.64 26.66"/>
    </g>
    <g>
      <polygon class="cls-10" points="255.58 79.83 248.88 75.95 254.68 72.6 261.39 76.48 255.58 79.83"/>
      <polygon class="cls-16" points="255.59 75.96 255.59 79.83 248.88 75.95 244.15 78.7 244.15 86.43 248.88 94.64 278.47 111.72 283.2 108.98 283.2 101.24 278.47 93.04 271.76 89.17 271.76 85.3 267.03 77.1 260.32 73.23 255.59 75.96"/>
      <polygon class="cls-10" points="267.03 77.1 260.32 73.23 266.12 69.87 272.83 73.74 267.03 77.1"/>
      <polygon class="cls-10" points="278.47 93.04 271.76 89.17 277.57 85.82 284.27 89.69 278.47 93.04"/>
      <polygon class="cls-12" points="271.76 85.3 267.03 77.1 272.83 73.74 277.56 81.95 271.76 85.3"/>
      <polygon class="cls-12" points="283.2 101.24 278.47 93.04 284.27 89.69 289 97.9 283.2 101.24"/>
      <polygon class="cls-23" points="277.56 85.81 271.76 89.17 271.76 85.3 277.56 81.95 277.56 85.81"/>
      <polygon class="cls-23" points="289 105.63 283.2 108.98 283.2 101.24 289 97.9 289 105.63"/>
    </g>
    <g>
      <polygon class="cls-10" points="359.22 26.59 351.85 22.33 358.23 18.65 365.59 22.91 359.22 26.59"/>
      <polygon class="cls-16" points="359.23 22.34 359.23 26.6 351.85 22.33 346.65 25.35 346.65 33.85 351.85 42.87 384.37 61.64 389.57 58.63 389.57 50.13 384.37 41.11 377 36.85 377 32.6 371.79 23.59 364.42 19.34 359.23 22.34"/>
      <polygon class="cls-10" points="371.79 23.59 364.42 19.34 370.8 15.65 378.17 19.91 371.79 23.59"/>
      <polygon class="cls-10" points="384.37 41.11 377 36.85 383.37 33.18 390.74 37.43 384.37 41.11"/>
      <polygon class="cls-12" points="377 32.6 371.79 23.59 378.17 19.91 383.37 28.93 377 32.6"/>
      <polygon class="cls-12" points="389.57 50.13 384.37 41.11 390.74 37.43 395.95 46.45 389.57 50.13"/>
      <polygon class="cls-23" points="383.37 33.17 377 36.85 377 32.6 383.37 28.93 383.37 33.17"/>
      <polygon class="cls-23" points="395.95 54.95 389.57 58.63 389.57 50.13 395.95 46.45 395.95 54.95"/>
    </g>
  </g>
</svg>